<svg xmlns="http://www.w3.org/2000/svg" viewBox="0 0 3191 813" fill="currentColor" aria-hidden="true" role="img">
<path class="yandex-ya" d="M0 0 C403.20224766 -0.88883249 403.20224766 -0.88883249 557.15573633 -1.0596292 C559.31695038 -1.06203546 561.47816443 -1.06444272 563.63937847 -1.06685087 C564.72303192 -1.06805815 565.80668536 -1.06926542 566.92317679 -1.07050928 C605.20879864 -1.11322353 643.4944186 -1.15737511 681.78003585 -1.20404363 C685.43423384 -1.2084853 689.08843187 -1.21288922 692.74262991 -1.21728395 C748.70408853 -1.28472697 804.6654415 -1.37057344 860.62677002 -1.51062012 C861.83038973 -1.51363189 863.03400944 -1.51664366 864.27410247 -1.5197467 C883.68027071 -1.56841945 903.0864349 -1.61865863 922.4925986 -1.66910569 C978.38187085 -1.81436808 1034.27106223 -1.94806568 1090.16050434 -2.00507545 C1091.30959783 -2.00625323 1092.45869132 -2.007431 1093.64260582 -2.00864446 C1118.86677865 -2.03429007 1144.09095249 -2.05397741 1169.31513434 -2.06802162 C1179.46418762 -2.07377738 1189.61324031 -2.08039101 1199.76229286 -2.08729935 C1201.42845687 -2.08840244 1201.42845687 -2.08840244 1203.12828075 -2.08952782 C1238.92971712 -2.11365733 1274.73055276 -2.20764611 1310.53174663 -2.33820859 C1346.58992933 -2.46938893 1382.6475289 -2.53219605 1418.70595631 -2.49972773 C1423.68693109 -2.49525986 1428.66790617 -2.49157749 1433.64888191 -2.48836899 C1434.6253092 -2.48771162 1435.60173648 -2.48705425 1436.60775247 -2.48637695 C1452.07982707 -2.4779969 1467.55066923 -2.54370766 1483.02240785 -2.64021697 C1498.23021628 -2.73356117 1513.4364249 -2.74871752 1528.64438438 -2.6802999 C1537.56568682 -2.64253374 1546.48192138 -2.66517204 1555.40263369 -2.77677404 C1561.32689919 -2.8448883 1567.24754018 -2.83323521 1573.17169337 -2.7566236 C1576.53553787 -2.71536459 1579.88154855 -2.72025173 1583.24590113 -2.79917539 C1602.56722926 -3.22378605 1602.56722926 -3.22378605 1608.31720003 2.1761305 C1612.4413891 7.4798291 1615.2893566 13.25120595 1617.88575762 19.42138896 C1619.33856321 22.7835125 1621.11296748 25.80034545 1623.0234375 28.921875 C1624.14183867 30.86388489 1625.25904388 32.80658406 1626.375 34.75 C1627.64319629 36.95314392 1628.91142645 39.15626835 1630.1796875 41.359375 C1630.81100586 42.45701172 1631.44232422 43.55464844 1632.09277344 44.68554688 C1635.22364924 50.12650565 1638.36216542 55.56305248 1641.5 61 C1642.75003758 63.16664498 1644.00003756 65.33331166 1645.25 67.5 C1645.86875 68.5725 1646.4875 69.645 1647.125 70.75 C1712.74999998 184.49999997 1712.74999998 184.49999997 1714.62524414 187.75048828 C1715.87435518 189.91557071 1717.12354129 192.08060982 1718.37280273 194.24560547 C1721.51202309 199.68615706 1724.64990563 205.12747216 1727.78515625 210.5703125 C1733.80747329 221.02206199 1739.84669337 231.46299548 1745.9375 241.875 C1751.35921178 251.14499777 1756.70204915 260.45831752 1762.01922607 269.78845215 C1767.22045129 278.9128284 1772.48027878 288.00132774 1777.78344727 297.06689453 C1783.93766742 307.59084625 1790.02369996 318.15380137 1796.10888672 328.71777344 C1799.2368015 334.14659945 1802.36861966 339.57317249 1805.5 345 C1806.74609839 347.16015357 1807.99219214 349.32030983 1809.23828125 351.48046875 C1812.41741989 356.99114144 1815.59880362 362.5005143 1818.78125 368.00927734 C1820.03948639 370.18959732 1821.29603253 372.3708937 1822.55078125 374.55322266 C1825.5525516 379.77358869 1828.57343432 384.98022282 1831.64453125 390.16015625 C1832.49494995 391.60878052 1832.49494995 391.60878052 1833.36254883 393.08666992 C1834.42666432 394.89869662 1835.50022793 396.70521961 1836.5847168 398.50512695 C1837.28528198 399.70528442 1837.28528198 399.70528442 1838 400.9296875 C1838.4125 401.62304199 1838.825 402.31639648 1839.25 403.03076172 C1840.18940453 405.49731019 1839.91788388 406.55494462 1839 409 C1837.65098294 411.62161921 1836.26388237 414.18605087 1834.8125 416.75 C1834.15254028 417.9265918 1834.15254028 417.9265918 1833.47924805 419.12695312 C1828.65016092 427.69498363 1823.67331345 436.17743241 1818.703125 444.6640625 C1814.96365411 451.05281992 1811.25874966 457.46116076 1807.5625 463.875 C1806.94028564 464.95458984 1806.31807129 466.03417969 1805.67700195 467.14648438 C1804.41488483 469.3368252 1803.15292215 471.52725502 1801.89111328 473.71777344 C1798.76319852 479.14659942 1795.63141552 484.57319281 1792.5 490 C1791.24998121 492.16665583 1789.99998122 494.3333225 1788.75 496.5 C1746.25 570.16666667 1703.75 643.83333333 1661.25 717.5 C1660.63116943 718.57266113 1660.01233887 719.64532227 1659.37475586 720.75048828 C1658.12564482 722.91557071 1656.87645871 725.08060982 1655.62719727 727.24560547 C1652.48797691 732.68615706 1649.35009437 738.12747216 1646.21484375 743.5703125 C1640.16943155 754.06235021 1634.10740514 764.54390256 1628 775 C1620.62517625 787.642555 1613.31410387 800.32221996 1606 813 C1076.02 813 546.04 813 0 813 C0 544.71 0 276.42 0 0 Z M77 69 C77 291.42 77 513.84 77 743 C333.81764564 743.37314139 333.81764564 743.37314139 590.6353426 743.62614453 C592.62743239 743.62756641 594.61952217 743.62898888 596.61161196 743.63041188 C597.61046493 743.63112527 598.6093179 743.63183866 599.63843913 743.63257367 C634.92838375 743.65781414 670.21832765 743.68390378 705.50827052 743.71148033 C708.87657398 743.71410495 712.24487746 743.71670727 715.61318094 743.71930415 C767.2017858 743.75916105 818.79035065 743.80989653 870.37890625 743.89263916 C872.04350671 743.89530869 872.04350671 743.89530869 873.74173546 743.89803214 C891.63438284 743.92679363 909.52702869 743.9564803 927.41967435 743.98628973 C978.94438602 744.07211659 1030.46906709 744.15112326 1081.99384308 744.18481731 C1083.0529966 744.18551327 1084.11215013 744.18620923 1085.20339921 744.18692627 C1108.45217212 744.2020798 1131.70094541 744.21371355 1154.94972173 744.22201278 C1164.3036853 744.22541395 1173.65764865 744.229322 1183.01161194 744.23340416 C1184.54725529 744.23405599 1184.54725529 744.23405599 1186.11392174 744.23472099 C1219.12137195 744.24898386 1252.12859482 744.30453836 1285.13595323 744.38166871 C1318.37484172 744.45915161 1351.61350945 744.49630657 1384.85249058 744.47711184 C1389.44199429 744.47447166 1394.03149812 744.47229575 1398.6210022 744.47039986 C1399.97055517 744.46981719 1399.97055517 744.46981719 1401.34737184 744.46922275 C1415.61456569 744.46426725 1429.88129355 744.50313308 1444.14836031 744.56012821 C1458.16518328 744.61522823 1472.18140013 744.62428389 1486.1982801 744.58381358 C1494.42444789 744.56146563 1502.6486978 744.57499503 1510.87464318 744.64082102 C1516.97068616 744.68566219 1523.06447754 744.66319934 1529.1605688 744.61381968 C1531.61956399 744.60448811 1534.07876044 744.61724301 1536.53749773 744.65405818 C1548.13513861 745.38892045 1548.13513861 745.38892045 1558.72431663 741.74557023 C1561.88635485 738.29024031 1563.38465593 734.37173391 1565 730 C1566.14267881 727.96520907 1567.31641278 725.9471954 1568.53515625 723.95703125 C1569.71283478 721.90994449 1570.8885578 719.86173171 1572.0625 717.8125 C1573.0404645 716.11168147 1574.01843191 714.41086461 1574.99656677 712.71014404 C1576.00094035 710.96320818 1577.0044778 709.21579442 1578.0078125 707.46826172 C1581.18684118 701.93379096 1584.37391127 696.40396711 1587.5625 690.875 C1588.18326416 689.79839111 1588.80402832 688.72178223 1589.44360352 687.61254883 C1594.18035286 679.40428276 1598.95190237 671.21672161 1603.73291016 663.03417969 C1610.53587623 651.38340815 1617.26642186 639.69096256 1624 628 C1631.87662589 614.32445686 1639.77120092 600.66039042 1647.73291016 587.03417969 C1654.53587623 575.38340815 1661.26642186 563.69096256 1668 552 C1675.87662589 538.32445686 1683.77120092 524.66039042 1691.73291016 511.03417969 C1698.53587623 499.38340815 1705.26642186 487.69096256 1712 476 C1725.9329915 451.80928317 1725.9329915 451.80928317 1732.47436523 440.60522461 C1733.64406835 438.60082341 1734.81160436 436.59515574 1735.97680664 434.58813477 C1738.73347665 429.84545534 1741.52132488 425.1286512 1744.390625 420.453125 C1744.91624023 419.58357178 1745.44185547 418.71401855 1745.98339844 417.81811523 C1746.96650248 416.19390455 1747.9637684 414.57814895 1748.97753906 412.97290039 C1749.62287598 411.89770142 1749.62287598 411.89770142 1750.28125 410.80078125 C1750.66345703 410.18372314 1751.04566406 409.56666504 1751.43945312 408.9309082 C1752.4965551 405.28952339 1750.23827398 402.44546181 1748.54223633 399.2746582 C1747.97786865 398.29327881 1747.41350098 397.31189941 1746.83203125 396.30078125 C1746.19378418 395.18735352 1745.55553711 394.07392578 1744.89794922 392.92675781 C1744.20289367 391.72195086 1743.5077414 390.51719971 1742.8125 389.3125 C1742.09105251 388.05711328 1741.36986506 386.80157708 1740.64892578 385.54589844 C1738.7949706 382.31879708 1736.93698535 379.09403586 1735.07781982 375.86993408 C1734.05233129 374.09079075 1733.02805128 372.31095951 1732.00439453 370.53076172 C1724.80316826 358.0074512 1717.55799698 345.5105246 1710.26904297 333.03808594 C1705.34924802 324.61402569 1700.47468788 316.1643035 1695.60546875 307.7109375 C1691.42650842 300.46048459 1687.22252011 293.22516137 1683 286 C1674.97718322 272.26953183 1667.04141672 258.48921914 1659.10449219 244.70898438 C1652.43043688 233.12318234 1645.74535916 221.54446647 1639 210 C1630.97732489 196.26944812 1623.04141741 182.48922034 1615.10449219 168.70898438 C1607.85966952 156.1323608 1600.5926719 143.56963043 1593.26928711 131.03857422 C1588.98755042 123.70687452 1584.73790212 116.35711187 1580.5 109 C1575.41572687 100.17586247 1570.31465217 91.3618017 1565.1875 82.5625 C1564.29804688 81.03399414 1564.29804688 81.03399414 1563.390625 79.47460938 C1562.84277344 78.53552734 1562.29492188 77.59644531 1561.73046875 76.62890625 C1561.24989014 75.80463135 1560.76931152 74.98035645 1560.27416992 74.13110352 C1559.23300282 72.38970715 1558.12543875 70.68815812 1557 69 C1555.09234226 68.54924738 1555.09234226 68.54924738 1552.85725009 68.62598651 C1551.98142856 68.61892782 1551.10560703 68.61186913 1550.20324545 68.60459654 C1549.23256835 68.61212317 1548.26189125 68.6196498 1547.26179969 68.62740451 C1546.23149108 68.62357025 1545.20118247 68.61973599 1544.13965239 68.61578555 C1540.63969741 68.60649736 1537.14013813 68.61884597 1533.64019585 68.63085651 C1531.11383001 68.62864019 1528.58746505 68.62510722 1526.06110269 68.62036702 C1520.52638933 68.61304504 1514.99179944 68.61516728 1509.45709275 68.62535045 C1501.17147919 68.64053548 1492.8859321 68.63847872 1484.60030969 68.63295073 C1470.48218565 68.62403589 1456.36409873 68.62939212 1442.24597931 68.64238358 C1427.9305313 68.65549874 1413.61510248 68.66210356 1399.29964828 68.66067696 C1398.39687846 68.66059088 1397.49410863 68.6605048 1396.56398214 68.66041612 C1391.96109578 68.65994702 1387.35820943 68.65937117 1382.75532308 68.65875761 C1349.40306596 68.65453041 1316.05082594 68.66484391 1282.69857407 68.68280983 C1249.65934032 68.70056469 1216.62011389 68.71213258 1183.5808754 68.71536827 C1182.04294733 68.71552312 1182.04294733 68.71552312 1180.47395002 68.71568111 C1171.10983288 68.71662068 1161.74571575 68.71748375 1152.3815986 68.71825503 C1129.10129289 68.72017346 1105.82098736 68.72305157 1082.54068184 68.72658062 C1081.48043523 68.72674057 1080.42018862 68.72690052 1079.32781333 68.72706532 C1027.72684024 68.73493382 976.12587199 68.75385811 924.52490234 68.77368164 C906.61356612 68.78055649 888.70222988 68.78738252 870.79089355 68.79400635 C869.68006207 68.7944172 868.56923058 68.79482804 867.42473754 68.79525134 C815.81064417 68.81427421 764.19654999 68.82542501 712.58245405 68.83460481 C709.20627459 68.83520652 705.83009513 68.83581341 702.45391567 68.83642202 C667.27013426 68.84276204 632.08635279 68.84872334 596.90257129 68.85452034 C595.39481257 68.8547688 595.39481257 68.8547688 593.85659407 68.85502228 C592.02764715 68.85532344 590.19870022 68.85562416 588.36975329 68.85592424 C417.91315979 68.88397185 247.45659092 68.94445792 77 69 Z " class="yandex-reviews" fill="currentColor" transform="translate(1351,0)"/>
<g class="yandex-reviews-text"><path d="M0 0 C3.69766563 0.02185488 7.39518593 0.02093083 11.09290504 0.01972389 C14.6581542 0.02026588 18.22330731 0.03119783 21.78852463 0.04572678 C23.48942721 0.05208613 25.1903406 0.05603165 26.89125443 0.05751419 C29.24778421 0.06183031 31.60383804 0.07928024 33.96026611 0.10070801 C34.66036301 0.09980164 35.3604599 0.09889526 36.08177185 0.09796143 C40.89288027 0.16222841 40.89288027 0.16222841 43.12188721 2.39123535 C43.37143487 5.2289415 43.37143487 5.2289415 43.37077618 8.94395542 C43.37338346 9.62806648 43.37599075 10.31217754 43.37867704 11.01701924 C43.38502322 13.33224342 43.37698562 15.6472011 43.36912537 17.9624176 C43.37071213 19.6298514 43.37317441 21.29728455 43.37644178 22.9647159 C43.38288247 27.56453344 43.37676623 32.16426357 43.3686775 36.7640754 C43.36212116 41.7177555 43.36704444 46.67142549 43.37055969 51.62510681 C43.37561109 61.33612715 43.36994837 71.04711354 43.36070939 80.75812966 C43.35034636 92.05492049 43.35039502 103.3517039 43.35088197 114.64849859 C43.35138304 134.79720775 43.34220865 154.94590105 43.32769775 175.09460449 C43.31360755 194.6691517 43.30652702 214.24368496 43.30718994 233.8182373 C43.3072299 235.02389267 43.30726985 236.22954803 43.30731102 237.47173841 C43.30735138 238.67525999 43.30739173 239.87878158 43.30743331 241.11877352 C43.3081223 263.37066206 43.30223818 285.62254463 43.29328009 307.87443124 C43.29025758 315.75878201 43.2891998 323.6431317 43.28874779 331.52748299 C43.28806721 341.1281121 43.28362436 350.72873117 43.27441498 360.32935602 C43.26978281 365.23266751 43.26675668 370.13596611 43.26800919 375.03927994 C43.26909838 379.5203714 43.26562195 384.0014343 43.25836066 388.4825198 C43.25653648 390.110999 43.25642746 391.73948113 43.25812795 393.36796046 C43.26017121 395.56679377 43.25616815 397.76553149 43.25052166 399.96435642 C43.24981723 401.19014866 43.24911281 402.41594091 43.24838704 403.67887837 C43.12188721 406.39123535 43.12188721 406.39123535 42.12188721 407.39123535 C39.1765315 407.49233888 36.25511161 407.53092815 33.30938721 407.52404785 C31.98330444 407.52548294 31.98330444 407.52548294 30.63043213 407.52694702 C28.75746591 407.52762887 26.88449735 407.52577428 25.01153564 407.52160645 C22.13420333 407.51625824 19.25702713 407.52155128 16.37969971 407.5279541 C14.56459519 407.52729332 12.74949078 407.52601216 10.93438721 407.52404785 C10.06773437 407.52607208 9.20108154 407.52809631 8.3081665 407.53018188 C2.2368373 407.50618545 2.2368373 407.50618545 1.12188721 406.39123535 C1.02527769 404.46761908 1.00001553 402.54040469 1.00163269 400.61436462 C0.99957069 398.7317392 0.99957069 398.7317392 0.99746704 396.81108093 C1.00100665 395.40737892 1.00464147 394.00367714 1.00836182 392.59997559 C1.00864368 391.13186647 1.00848597 389.66375722 1.00791931 388.19564819 C1.00763131 384.19788878 1.01352847 380.20015912 1.02049327 376.20240664 C1.02672636 372.02902802 1.02733057 367.85564879 1.02851868 363.68226624 C1.03163213 355.77390743 1.0398457 347.86556238 1.04986817 339.95720965 C1.06102888 330.95615041 1.06653965 321.95509053 1.0715636 312.9540261 C1.0820283 294.43308783 1.09982842 275.9121632 1.12188721 257.39123535 C-7.78811279 257.39123535 -16.69811279 257.39123535 -25.87811279 257.39123535 C-26.53811279 259.37123535 -27.19811279 261.35123535 -27.87811279 263.39123535 C-28.86732649 265.46326213 -29.90052772 267.51464634 -30.96795654 269.54748535 C-31.26821747 270.12298126 -31.56847839 270.69847717 -31.87783813 271.29141235 C-32.52024412 272.52188798 -33.16456144 273.75136734 -33.81063843 274.97991943 C-35.52197896 278.23464165 -37.21910956 281.49676073 -38.91717529 284.75842285 C-39.2573317 285.41104095 -39.5974881 286.06365906 -39.94795227 286.73605347 C-42.92813965 292.46357514 -45.82375657 298.23117935 -48.69061279 304.01623535 C-52.3680536 311.42622481 -56.15787686 318.76462339 -60.03948975 326.06945801 C-63.4210971 332.46011711 -66.66112374 338.91638063 -69.87811279 345.39123535 C-73.81671142 353.31835148 -77.83988468 361.18720304 -82.0055542 368.99719238 C-84.49356765 373.68748105 -86.89538241 378.41327901 -89.24920654 383.17248535 C-89.83000977 384.34633789 -90.41081299 385.52019043 -91.00921631 386.72961426 C-92.14929803 389.04169936 -93.28412839 391.35638326 -94.4130249 393.6739502 C-94.93517578 394.73307617 -95.45732666 395.79220215 -95.99530029 396.88342285 C-96.45533447 397.82556641 -96.91536865 398.76770996 -97.38934326 399.73840332 C-97.88063721 400.61383789 -98.37193115 401.48927246 -98.87811279 402.39123535 C-99.38415039 403.31758789 -99.89018799 404.24394043 -100.41156006 405.19836426 C-104.29575654 408.6515814 -108.2000326 408.06939792 -113.22576904 407.98498535 C-114.73813393 407.98504578 -114.73813393 407.98504578 -116.28105164 407.98510742 C-118.41022991 407.97975051 -120.53940757 407.96216056 -122.668396 407.93322754 C-125.93227338 407.89134237 -129.19408993 407.89216104 -132.45819092 407.89904785 C-134.52656467 407.88855657 -136.59492777 407.87561881 -138.66326904 407.85998535 C-139.64143082 407.85978394 -140.61959259 407.85958252 -141.62739563 407.859375 C-142.98912148 407.8355072 -142.98912148 407.8355072 -144.37835693 407.81115723 C-145.17681534 407.80273804 -145.97527374 407.79431885 -146.79792786 407.78564453 C-149.40343537 407.29163265 -150.31398445 406.50700669 -151.87811279 404.39123535 C-152.11904087 397.16339306 -147.81868503 391.33111232 -144.31561279 385.26623535 C-143.63719184 384.07212398 -142.96005329 382.87728322 -142.28411865 381.6817627 C-140.86727234 379.17703969 -139.44584489 376.67499942 -138.02166748 374.17443848 C-134.93973439 368.74998558 -131.93521225 363.28306251 -128.93011475 357.8157959 C-127.59775012 355.39268717 -126.26222981 352.97132387 -124.92675781 350.54992676 C-123.24323731 347.49738176 -121.5607551 344.44426449 -119.87811279 341.39123535 C-117.19114897 336.51593962 -114.50383887 331.64083521 -111.81561279 326.76623535 C-111.31833176 325.86448578 -111.31833176 325.86448578 -110.81100464 324.94451904 C-106.01611376 316.25112584 -101.20321411 307.56790806 -96.37811279 298.89123535 C-91.32745651 289.80584392 -86.28062268 280.71835937 -81.25115967 271.62121582 C-80.55430525 270.36129533 -79.85689372 269.10168278 -79.15887451 267.84240723 C-75.59896539 261.41897997 -72.09418811 254.99436721 -68.87811279 248.39123535 C-69.64123779 248.18498535 -70.40436279 247.97873535 -71.19061279 247.76623535 C-96.12078265 238.47023981 -114.98822742 216.9649357 -126.09295654 193.43811035 C-134.46017199 174.93889316 -137.11137287 155.80809417 -137.12811279 135.70373535 C-137.12912491 134.60917023 -137.12912491 134.60917023 -137.13015747 133.49249268 C-137.07436373 95.34521498 -127.15634284 57.28558879 -99.87811279 29.39123535 C-71.95077809 1.73717949 -37.09720636 -0.27734677 0 0 Z M-66.94061279 52.95373535 C-86.51137544 73.31339696 -91.10663716 102.71083991 -91.12811279 129.82873535 C-91.12912491 130.97265244 -91.12912491 130.97265244 -91.13015747 132.13967896 C-91.09250879 158.87903834 -85.37099052 183.62282931 -66.70623779 203.7310791 C-61.98628948 208.36391427 -56.96436258 211.74258521 -51.12811279 214.76623535 C-50.52160889 215.08801758 -49.91510498 215.4097998 -49.29022217 215.74133301 C-33.26443943 223.54379314 -16.31296927 221.39123535 1.12188721 221.39123535 C1.12188721 160.01123535 1.12188721 98.63123535 1.12188721 35.39123535 C-36.74686929 34.8271341 -36.74686929 34.8271341 -66.94061279 52.95373535 Z " fill="currentColor" transform="translate(151.87811279296875,186.6087646484375)"/>
<path d="M0 0 C2.02368259 -0.3719368 2.02368259 -0.3719368 4.56166077 -0.36749268 C5.5221785 -0.37306183 6.48269623 -0.37863098 7.47232056 -0.3843689 C9.05815445 -0.37054672 9.05815445 -0.37054672 10.67602539 -0.35644531 C11.78661819 -0.35848969 12.897211 -0.36053406 14.04145813 -0.36264038 C17.72702281 -0.36565826 21.41214446 -0.34714185 25.09765625 -0.328125 C27.64830921 -0.32506928 30.19896384 -0.32319174 32.74961853 -0.32244873 C38.10048229 -0.31783944 43.45119316 -0.303777 48.80200195 -0.28125 C55.67809437 -0.25236121 62.55408363 -0.24202582 69.43023014 -0.2375679 C74.69824754 -0.23402 79.96624634 -0.22360987 85.23425102 -0.21169281 C87.77052045 -0.20597568 90.30679223 -0.20122179 92.84306526 -0.19742584 C96.37987528 -0.19058879 99.91658944 -0.17696897 103.45336914 -0.16113281 C105.04223938 -0.15945602 105.04223938 -0.15945602 106.66320801 -0.15774536 C107.62090591 -0.15203522 108.57860382 -0.14632507 109.56532288 -0.14044189 C110.40247865 -0.13746723 111.23963442 -0.13449257 112.10215855 -0.13142776 C114 0 114 0 115 1 C115.10596085 3.94912391 115.14604098 6.87519006 115.14476013 9.82502747 C115.14828698 10.76227667 115.15181382 11.69952587 115.15544754 12.66517657 C115.16619114 15.8312326 115.16982529 18.99725861 115.17358398 22.16333008 C115.1798849 24.42296986 115.18665018 26.68260838 115.19384766 28.94224548 C115.20854961 33.82100478 115.22026129 38.69975917 115.22979546 43.57853127 C115.24520365 51.28786619 115.26915233 58.99715952 115.29469299 66.70646667 C115.32983947 77.5117432 115.36292932 88.31702212 115.39282227 99.12231445 C115.39472276 99.80854111 115.39662325 100.49476776 115.39858133 101.20178916 C115.42540644 110.93780557 115.44928054 120.67382701 115.47196633 130.40985384 C115.47356363 131.09517092 115.47516094 131.780488 115.47680664 132.48657227 C115.47840011 133.17105691 115.47999357 133.85554156 115.48163532 134.56076816 C115.50839311 145.96945218 115.54290456 157.37809244 115.58346039 168.78673667 C115.61028771 176.45523369 115.62815926 184.12368402 115.63949764 191.7922188 C115.64860481 196.55935276 115.66595786 201.32642989 115.68567657 206.09353065 C115.69316864 208.30910858 115.69723413 210.52470105 115.69767189 212.7402916 C115.69874996 215.75831513 115.71195782 218.7760476 115.72825623 221.79402161 C115.72563937 222.67660623 115.72302252 223.55919085 115.72032636 224.46852046 C115.72717516 225.27704894 115.73402395 226.08557742 115.74108028 226.91860676 C115.74281653 227.61523121 115.74455278 228.31185567 115.74634165 229.02958995 C116.05334436 231.41437733 116.69306982 232.98332864 118 235 C122.28989278 236.42996426 126.56898963 236.38544316 131.06640625 236.62109375 C134 237 134 237 136 239 C136.20886805 241.59820605 136.29365594 244.09073809 136.29052734 246.69091797 C136.29724457 247.48457764 136.30396179 248.2782373 136.31088257 249.09594727 C136.32993053 251.72809048 136.33379027 254.35997959 136.3359375 256.9921875 C136.34236112 258.81820787 136.34908914 260.64422719 136.35610962 262.47024536 C136.36809968 266.30196519 136.37178871 270.13359476 136.37060547 273.96533203 C136.37040227 278.87735381 136.39769704 283.78879704 136.43214989 288.70068169 C136.45437995 292.47362937 136.4584442 296.24643703 136.45738602 300.01944351 C136.45974814 301.83036415 136.46860594 303.6412883 136.48405075 305.45214462 C136.50363085 307.98527331 136.49790459 310.51714435 136.48583984 313.05029297 C136.49707886 313.79953033 136.50831787 314.5487677 136.51989746 315.32070923 C136.47834191 318.75141151 136.24376702 320.66879998 134.18536377 323.46549988 C131.06190173 325.65870586 128.14058288 325.55557876 124.4609375 325.49609375 C123.73887115 325.49754898 123.01680481 325.49900421 122.27285767 325.50050354 C120.75152538 325.49884779 119.23017578 325.4873226 117.70898438 325.46655273 C115.37558344 325.43750726 113.04444276 325.44596587 110.7109375 325.45898438 C109.23175976 325.45274933 107.7525892 325.44436021 106.2734375 325.43359375 C105.57447357 325.43652939 104.87550964 325.43946503 104.15536499 325.44248962 C102.19287109 325.40405273 102.19287109 325.40405273 99 325 C89.19332165 310.28998248 97 289.67924081 97 272 C59.38 272 21.76 272 -17 272 C-17 287.51 -17 303.02 -17 319 C-20 324 -20 324 -22 325 C-24.46921977 325.09859764 -26.90958336 325.13986876 -29.37890625 325.1328125 C-30.46980812 325.13424759 -30.46980812 325.13424759 -31.58274841 325.13571167 C-33.12018928 325.13639235 -34.65763301 325.13454585 -36.19506836 325.13037109 C-38.556543 325.12501351 -40.91782811 325.13032377 -43.27929688 325.13671875 C-44.77083376 325.1360581 -46.26237052 325.13477721 -47.75390625 325.1328125 C-48.81950523 325.13584885 -48.81950523 325.13584885 -49.90663147 325.13894653 C-54.88504286 325.11495714 -54.88504286 325.11495714 -56 324 C-56.1057525 321.36338019 -56.14678029 318.75281879 -56.14526367 316.11547852 C-56.14862228 315.28949158 -56.1519809 314.46350464 -56.15544128 313.61248779 C-56.1649805 310.86794553 -56.16689587 308.12346408 -56.16796875 305.37890625 C-56.17117925 303.47940546 -56.17454316 301.57990492 -56.17805481 299.68040466 C-56.18405351 295.69309923 -56.18589395 291.70581549 -56.18530273 287.71850586 C-56.18520107 282.5990541 -56.19885489 277.47974089 -56.21607494 272.360322 C-56.22717141 268.43563696 -56.22922267 264.51098567 -56.22869301 260.58628654 C-56.22987663 258.69836893 -56.23431961 256.81045055 -56.24202538 254.92254829 C-56.25177803 252.28623769 -56.24896607 249.65023109 -56.24291992 247.01391602 C-56.24853943 246.22786484 -56.25415894 245.44181366 -56.25994873 244.63194275 C-56.22831548 239.22831548 -56.22831548 239.22831548 -54 237 C-51.63490639 236.69940057 -49.25558119 236.50484988 -46.875 236.375 C-44.95300781 236.26285156 -44.95300781 236.26285156 -42.9921875 236.1484375 C-42.00476563 236.09945312 -41.01734375 236.05046875 -40 236 C-11.76962004 181.75815118 -3.20948211 118.10809341 -2.77020454 57.51576614 C-2.75335814 55.27878006 -2.73013616 53.04193427 -2.70530701 50.80502319 C-2.63558025 44.46090959 -2.57390052 38.11675577 -2.52319336 31.77246094 C-2.49145299 27.85593485 -2.45024497 23.93960362 -2.40299797 20.02323532 C-2.38701344 18.54089181 -2.37467552 17.05850423 -2.36609077 15.5760994 C-2.35396751 13.5187904 -2.32984793 11.46194674 -2.30297852 9.40478516 C-2.29267105 8.23694489 -2.28236359 7.06910461 -2.27174377 5.86587524 C-2 3 -2 3 0 0 Z M39 35 C38.82984375 38.16851562 38.6596875 41.33703125 38.484375 44.6015625 C35.16748251 104.87665002 30.29812822 164.699031 4 220 C1.36 225.61 -1.28 231.22 -4 237 C21.08 237 46.16 237 72 237 C72 170.34 72 103.68 72 35 C61.11 35 50.22 35 39 35 Z " fill="currentColor" transform="translate(481,322)"/>
<path d="M0 0 C20.31745042 19.05384467 32.06298806 41.72993758 33.06640625 69.796875 C33.38126791 84.3860614 33.10225229 98.51189549 28.75 112.5625 C28.43651611 113.59818115 28.43651611 113.59818115 28.11669922 114.65478516 C23.78340494 128.50509727 16.88878045 140.93207221 6.79296875 151.4140625 C4.68854573 153.55657522 4.68854573 153.55657522 2.796875 156.0703125 C-18.28676977 181.74085709 -56.74836602 195.10837335 -88.78686523 198.3815918 C-128.62136118 201.30728924 -168.87329582 192.62831456 -199.95703125 166.54296875 C-200.71371094 165.88941406 -201.47039062 165.23585938 -202.25 164.5625 C-203.07886719 163.87800781 -203.90773438 163.19351563 -204.76171875 162.48828125 C-211.32633253 156.88875617 -216.37946625 150.66653478 -221.25 143.5625 C-222.08337891 142.36173828 -222.08337891 142.36173828 -222.93359375 141.13671875 C-238.88207157 116.48907121 -240.11943894 84.53330338 -234.25 56.5625 C-226.69678368 25.83506038 -206.61698544 2.13088399 -179.8515625 -14.17578125 C-124.21463077 -46.78969334 -49.11221873 -42.90615053 0 0 Z M-163.25 21.5625 C-164.44302734 22.61244141 -164.44302734 22.61244141 -165.66015625 23.68359375 C-180.4761844 37.53391166 -187.55393338 57.29749834 -188.53515625 77.2421875 C-189.14915201 98.81098155 -184.22214762 119.97038669 -169.18774414 136.14379883 C-151.81168483 154.02318419 -127.4948544 164.26106331 -102.68432617 164.84838867 C-77.66449218 165.09078152 -56.73978361 156.82979906 -38.3671875 139.76953125 C-21.19973673 121.87357242 -15.57968104 101.63419202 -15.77929688 77.52392578 C-16.34613285 56.07762641 -23.24409153 38.11339126 -38.9296875 22.9765625 C-58.91518827 5.37415667 -84.68816078 -3.10458481 -111.21826172 -1.60595703 C-131.03006689 0.03669444 -148.55411289 8.48250538 -163.25 21.5625 Z " fill="currentColor" transform="translate(1741.25,318.4375)"/>
<path d="M0 0 C13.53 0 27.06 0 41 0 C41 35.31 41 70.62 41 107 C61.46 107 81.92 107 103 107 C102.98839844 99.35972656 102.97679687 91.71945312 102.96484375 83.84765625 C102.95973717 79.02148353 102.95492341 74.19531412 102.95117188 69.36914062 C102.94518274 61.70059522 102.93808058 54.0320617 102.92456055 46.36352539 C102.91373401 40.18440559 102.90772366 34.00529852 102.90512276 27.82616997 C102.90326808 25.4629439 102.89964668 23.09971856 102.89426994 20.73649788 C102.88706262 17.43898104 102.88600893 14.14151753 102.88647461 10.84399414 C102.88287933 9.85641113 102.87928406 8.86882812 102.87557983 7.85131836 C102.8769545 6.95804337 102.87832916 6.06476837 102.87974548 5.14442444 C102.87882369 4.36366578 102.8779019 3.58290712 102.87695217 2.77848911 C103 1 103 1 104 0 C106.9453557 -0.10110353 109.8667756 -0.13969279 112.8125 -0.1328125 C113.69655518 -0.13376923 114.58061035 -0.13472595 115.49145508 -0.13571167 C117.36442129 -0.13639351 119.23738986 -0.13453893 121.11035156 -0.13037109 C123.98768388 -0.12502289 126.86486008 -0.13031593 129.7421875 -0.13671875 C131.55729201 -0.13605797 133.37239643 -0.13477681 135.1875 -0.1328125 C136.05415283 -0.13483673 136.92080566 -0.13686096 137.8137207 -0.13894653 C143.88504991 -0.11495009 143.88504991 -0.11495009 145 1 C145.09841855 2.4367829 145.12739076 3.87838468 145.12863445 5.3185339 C145.1318589 6.25632496 145.13508335 7.19411602 145.1384055 8.16032499 C145.1360826 9.72390701 145.1360826 9.72390701 145.13371277 11.31907654 C145.13597833 12.41699542 145.13824388 13.51491429 145.14057809 14.64610344 C145.14695046 18.3557949 145.14608667 22.06545013 145.14526367 25.77514648 C145.14825314 28.42226297 145.15162646 31.06937653 145.15544128 33.7164917 C145.1637642 40.17873676 145.16649686 46.64097269 145.16705366 53.10322266 C145.16752804 58.35346978 145.16957888 63.60371387 145.17275429 68.85396004 C145.1815653 83.72371723 145.18617296 98.5934672 145.18542381 113.46322703 C145.18538386 114.26563799 145.1853439 115.06804895 145.18530273 115.89477539 C145.18526185 116.69816064 145.18522097 117.50154589 145.18517885 118.32927615 C145.18477224 131.35469141 145.19434434 144.38007777 145.2084411 157.40548467 C145.22278542 170.76453465 145.22971236 184.12357052 145.22884732 197.48262841 C145.22851468 204.98889864 145.23129105 212.49513858 145.24202538 220.0014019 C145.25110487 226.39167615 145.25332676 232.78190639 145.24651595 239.17218428 C145.24323776 242.43517907 145.24431503 245.69807122 145.2518692 248.96106148 C145.25951752 252.49209793 145.25499217 256.02290868 145.24723816 259.55393982 C145.25238172 260.59409711 145.25752529 261.6342544 145.26282471 262.7059316 C145.25822592 263.64633041 145.25362712 264.58672922 145.24888897 265.55562496 C145.24921502 266.77940992 145.24921502 266.77940992 145.24954766 268.0279178 C145 270 145 270 143 272 C140.0707697 272.18768653 137.23771603 272.25553641 134.30859375 272.23046875 C133.44814957 272.23001053 132.58770538 272.22955231 131.70118713 272.2290802 C129.88126243 272.22605705 128.06134033 272.21816888 126.24145508 272.20581055 C123.44538276 272.18755148 120.64964134 272.18530085 117.85351562 272.18554688 C116.08853878 272.1806319 114.3235642 272.17480367 112.55859375 272.16796875 C111.71695175 272.16685593 110.87530975 272.1657431 110.00816345 272.16459656 C104.11604705 272.11604705 104.11604705 272.11604705 103 271 C102.90385867 269.32975331 102.87812278 267.65541724 102.87974548 265.98240662 C102.87768349 264.35220581 102.87768349 264.35220581 102.87557983 262.68907166 C102.88097275 260.88509666 102.88097275 260.88509666 102.88647461 259.04467773 C102.88632858 257.78632111 102.88618256 256.52796448 102.8860321 255.23147583 C102.88574415 251.77088747 102.89164051 248.31033348 102.89860606 244.84975314 C102.90483997 241.23691909 102.90544343 237.62408433 102.90663147 234.01124573 C102.90974468 227.16536492 102.91795792 220.3195 102.92798096 213.4736262 C102.94122777 204.22594423 102.94664209 194.97825794 102.95248318 185.73056889 C102.96189782 171.15370068 102.9818168 156.57686601 103 142 C82.54 142 62.08 142 41 142 C41.01160156 151.30058594 41.02320313 160.60117187 41.03515625 170.18359375 C41.04026272 176.05794298 41.04511773 181.93229062 41.04882812 187.80664062 C41.05477117 197.14103746 41.06177298 206.4754253 41.07543945 215.80981445 C41.08538615 222.60676313 41.09185339 229.40370454 41.09408849 236.20066029 C41.09539563 239.80178131 41.09848164 243.40288152 41.10573006 247.0039959 C41.11374364 251.01756602 41.11399115 255.03109964 41.11352539 259.04467773 C41.11712067 260.24732773 41.12071594 261.44997772 41.12442017 262.68907166 C41.1230455 263.77587219 41.12167084 264.86267273 41.12025452 265.98240662 C41.12117631 266.93277518 41.1220981 267.88314375 41.12304783 268.86231136 C41 271 41 271 40 272 C37.0546443 272.10110353 34.1332244 272.13969279 31.1875 272.1328125 C29.86141724 272.13424759 29.86141724 272.13424759 28.50854492 272.13571167 C26.63557871 272.13639351 24.76261014 272.13453893 22.88964844 272.13037109 C20.01231612 272.12502289 17.13513992 272.13031593 14.2578125 272.13671875 C12.44270799 272.13605797 10.62760357 272.13477681 8.8125 272.1328125 C7.94584717 272.13483673 7.07919434 272.13686096 6.1862793 272.13894653 C0.11495009 272.11495009 0.11495009 272.11495009 -1 271 C-1.09754337 269.55703654 -1.12555454 268.10931203 -1.12584114 266.66305542 C-1.12844889 265.72116426 -1.13105664 264.77927311 -1.13374341 263.8088398 C-1.13039732 262.23839818 -1.13039732 262.23839818 -1.12698364 260.63623047 C-1.12854363 259.53352247 -1.13010362 258.43081448 -1.13171089 257.29469109 C-1.13572609 253.56884329 -1.13252923 249.84303565 -1.12939453 246.1171875 C-1.13074834 243.45859659 -1.13249174 240.80000852 -1.13470459 238.14141846 C-1.13916299 231.65143264 -1.13818551 225.16145835 -1.13529195 218.67147207 C-1.13303819 213.39928689 -1.13272527 208.12710496 -1.13381577 202.85491943 C-1.133969 202.10599611 -1.13412223 201.35707279 -1.13428011 200.58545482 C-1.13459982 199.06427208 -1.13492403 197.54308935 -1.1352527 196.02190661 C-1.1381077 181.74083151 -1.13482016 167.45976282 -1.12945233 153.17868876 C-1.12498428 140.91144034 -1.1257602 128.64420138 -1.13037109 116.37695312 C-1.13571651 102.14873918 -1.137833 87.92053086 -1.13475883 73.69231606 C-1.13444026 72.17657089 -1.13412589 70.66082573 -1.13381577 69.14508057 C-1.13366149 68.39920649 -1.13350721 67.65333242 -1.13334826 66.8848561 C-1.13248301 61.61592402 -1.13394616 56.3469955 -1.13629532 51.07806396 C-1.13909316 44.66141961 -1.13835541 38.24478749 -1.13301457 31.82814455 C-1.13037733 28.55112444 -1.12990664 25.27412912 -1.13266373 21.99710846 C-1.13537209 18.45264136 -1.13199796 14.90823284 -1.12698364 11.36376953 C-1.12921436 10.31680845 -1.13144509 9.26984737 -1.13374341 8.1911602 C-1.13113566 7.24926905 -1.12852791 6.30737789 -1.12584114 5.33694458 C-1.12567879 4.51767046 -1.12551644 3.69839634 -1.12534916 2.85429573 C-1 1 -1 1 0 0 Z " fill="currentColor" transform="translate(251,322)"/>
<path d="M0 0 C25.9196452 21.31069421 33.90687837 54.93690697 37.5 86.875 C37.59009338 87.64626221 37.68018677 88.41752441 37.77301025 89.2121582 C38.83587635 99.82630394 38.60886502 110.47154206 38.5625 121.125 C38.55747471 123.14192597 38.55291362 125.15885316 38.54882812 127.17578125 C38.53790468 132.07555122 38.52069684 136.97526196 38.5 141.875 C27.27581501 141.92175639 16.05165395 141.95708573 4.82739067 141.97862434 C-0.38691828 141.98897226 -5.60115963 142.00296267 -10.81542969 142.02587891 C-15.86646036 142.04793367 -20.91742686 142.05963579 -25.96850204 142.06475449 C-27.87617882 142.0683927 -29.7838529 142.07549273 -31.69150162 142.08646011 C-45.40197172 142.16200278 -58.86772127 141.34268306 -72.5 139.875 C-73.05804453 168.38766773 -72.01942364 197.61295015 -51.5 219.875 C-38.80566425 231.50926596 -23.38634952 234.577941 -6.6953125 234.171875 C3.93518386 233.7022387 14.21750172 231.47580266 24.5 228.875 C27.3125 228.4375 27.3125 228.4375 29.5 228.875 C32.98289202 233.32943558 33.82551767 238.52585268 34.9375 243.9375 C35.14826172 244.83533203 35.35902344 245.73316406 35.57617188 246.65820312 C36.92747575 253.17255336 36.92747575 253.17255336 35.0546875 256.25 C31.84510621 258.29156853 28.60189201 260.14299587 25.1875 261.8125 C24.48254395 262.15949951 23.77758789 262.50649902 23.05126953 262.86401367 C8.47647549 269.85867883 -7.33745905 274.06560828 -23.5 274.875 C-24.21027344 274.91625 -24.92054688 274.9575 -25.65234375 275 C-45.90954206 275.60356643 -65.72925467 269.21233449 -80.75 255.5 C-82.69901819 253.65392292 -84.59974686 251.77255008 -86.5 249.875 C-87.23089844 249.15570312 -87.96179688 248.43640625 -88.71484375 247.6953125 C-111.49089238 223.79173671 -119.61933883 185.52579731 -119.66796875 153.44921875 C-119.67220352 152.58773727 -119.67643829 151.7262558 -119.68080139 150.83866882 C-119.69060207 148.07989505 -119.69073752 145.32128794 -119.6875 142.5625 C-119.68689575 141.61892639 -119.6862915 140.67535278 -119.68566895 139.70318604 C-119.66234534 126.32538987 -119.46140648 113.13048348 -117.5 99.875 C-117.37109375 98.94204102 -117.2421875 98.00908203 -117.109375 97.04785156 C-112.29137628 62.68615238 -101.96771776 25.25010652 -74.5 1.875 C-52.2190268 -14.34465052 -22.72205973 -16.63366194 0 0 Z M-55.06640625 33.765625 C-69.36513522 54.80462675 -71.81072215 84.12992535 -72.5 108.875 C-71.7133345 108.80648331 -70.92666901 108.73796661 -70.11616516 108.66737366 C-62.21032319 108.01401793 -54.34838077 107.67755835 -46.41796875 107.55859375 C-45.23777664 107.53781265 -44.05758453 107.51703156 -42.84162903 107.49562073 C-39.1236371 107.43097166 -35.40558322 107.3716398 -31.6875 107.3125 C-29.14517625 107.26923399 -26.60285843 107.22561733 -24.06054688 107.18164062 C-17.87376072 107.07537898 -11.68691488 106.97346613 -5.5 106.875 C-5.42126749 98.79325318 -5.45005012 90.79612909 -6.25 82.75 C-6.33725342 81.86892578 -6.42450684 80.98785156 -6.5144043 80.08007812 C-8.44838385 62.04030206 -11.1497949 40.41447616 -25.125 27.4375 C-36.26010826 20.11177088 -47.17053482 23.75134904 -55.06640625 33.765625 Z " fill="currentColor" transform="translate(757.5,326.125)"/>
<path d="M0 0 C13.53 0 27.06 0 41 0 C41.33 39.93 41.66 79.86 42 121 C45.81485151 114.64191415 49.37957994 108.50203653 52.57421875 101.86328125 C52.97993607 101.0295549 53.38565338 100.19582855 53.80366516 99.33683777 C55.10278689 96.66421989 56.39529743 93.98846911 57.6875 91.3125 C58.58886229 89.45426678 59.49055705 87.59619478 60.39257812 85.73828125 C66.20812029 73.74972456 71.98511391 61.74281784 77.70947266 49.71044922 C81.66508467 41.40261635 85.64247892 33.10534896 89.64257812 24.81884766 C90.88904799 22.23040503 92.12474576 19.63707141 93.359375 17.04296875 C94.05130408 15.61160221 94.74395098 14.18058232 95.4375 12.75 C95.87775513 11.81232788 95.87775513 11.81232788 96.3269043 10.85571289 C98.56325381 6.29697591 101.36787385 2.31606308 106 0 C107.35845193 -0.08902493 108.72115974 -0.11760132 110.08251953 -0.11352539 C111.34360031 -0.11341209 111.34360031 -0.11341209 112.63015747 -0.11329651 C113.99272171 -0.10555458 113.99272171 -0.10555458 115.3828125 -0.09765625 C116.31221649 -0.0962413 117.24162048 -0.09482635 118.19918823 -0.09336853 C121.17449124 -0.08776053 124.14971964 -0.07520668 127.125 -0.0625 C129.13932183 -0.05748603 131.15364484 -0.05292295 133.16796875 -0.04882812 C138.11200802 -0.0377885 143.05599135 -0.02051849 148 0 C147.46260367 4.18689594 146.552048 7.33641688 144.515625 11.02734375 C143.99967773 11.97158203 143.48373047 12.91582031 142.95214844 13.88867188 C142.10958496 15.3978418 142.10958496 15.3978418 141.25 16.9375 C140.66508789 18.00162109 140.08017578 19.06574219 139.47753906 20.16210938 C135.11156553 28.07938684 130.63890077 35.93555656 126.15917969 43.78881836 C121.05754283 52.78640219 116.23264195 61.9233722 111.40765381 71.07095337 C106.68670886 80.01579713 101.87892196 88.89642863 96.875 97.6875 C96.34890137 98.6141748 95.82280273 99.54084961 95.28076172 100.49560547 C93.44876703 103.71738922 91.61601334 106.93841657 89.75585938 110.14404297 C88.70019317 111.96448268 87.66080846 113.79321792 86.625 115.625 C86.08101562 116.56601562 85.53703125 117.50703125 84.9765625 118.4765625 C83.75963959 121.62109129 84.09587005 122.76500317 85 126 C86.10145994 128.39528054 87.23795616 130.71049198 88.46484375 133.0390625 C88.8135553 133.71277893 89.16226685 134.38649536 89.52154541 135.08062744 C90.65421828 137.26525167 91.79571421 139.44512689 92.9375 141.625 C93.72422095 143.13792019 94.51043293 144.65110515 95.29614258 146.16455078 C97.52219036 150.44753776 99.75894467 154.72484989 102 159 C102.51369141 159.98033203 103.02738281 160.96066406 103.55664062 161.97070312 C105.14233486 164.99231837 106.73124945 168.01218277 108.32641602 171.02880859 C112.49394763 178.91200246 116.58777919 186.83323404 120.68823242 194.75146484 C124.92626978 202.93387667 129.1819211 211.10687006 133.44946289 219.27392578 C136.18032464 224.50319688 138.90211761 229.73705234 141.61328125 234.9765625 C141.92127655 235.57156555 142.22927185 236.1665686 142.54660034 236.77960205 C144.03830614 239.66160285 145.5289007 242.5441679 147.01757812 245.42773438 C147.83838867 247.01424805 147.83838867 247.01424805 148.67578125 248.6328125 C149.21154785 249.67211914 149.74731445 250.71142578 150.29931641 251.78222656 C151.5053053 254.06401433 152.73328198 256.31216134 154.00927734 258.55371094 C154.33840622 259.13941864 154.6675351 259.72512634 155.00663757 260.32858276 C155.92911803 261.96366893 156.86493544 263.59120973 157.80151367 265.21826172 C159.11935898 268.27703732 158.95365674 268.97078505 158 272 C151.98602991 272.07432654 145.97232904 272.12868588 139.95800781 272.16479492 C137.91336406 272.17985288 135.86875245 272.20030357 133.82421875 272.22631836 C130.88012748 272.26283311 127.93646443 272.27975651 124.9921875 272.29296875 C124.0825827 272.30845261 123.17297791 272.32393646 122.23580933 272.33988953 C117.076993 272.34124808 113.42278812 271.96388232 109 269 C107.53564453 267.38110352 107.53564453 267.38110352 106.5078125 265.56640625 C106.10336914 264.85887207 105.69892578 264.15133789 105.28222656 263.42236328 C102.74373864 258.62668978 100.27838886 253.80242131 97.875 248.9375 C97.30080322 247.78193604 96.72660645 246.62637207 96.13500977 245.43579102 C92.2352919 237.56348858 88.41590931 229.65542586 84.64672852 221.7199707 C79.937168 211.82153247 75.12408057 201.97414579 70.3125 192.125 C63.13385131 177.42908552 55.97555915 162.72363001 48.84887695 148.00244141 C48.5340184 147.35222519 48.21915985 146.70200897 47.89476013 146.03208923 C47.05568911 144.29912124 46.2170364 142.56595073 45.37841797 140.83276367 C44.26643957 138.54755549 43.13887426 136.27183452 42 134 C41.99576806 134.70513953 41.99153612 135.41027906 41.98717594 136.13678646 C41.88401051 153.26987443 41.77539423 170.40291908 41.66066074 187.53593349 C41.60530959 195.82122301 41.55182455 204.10651683 41.50268555 212.3918457 C41.45986682 219.6107231 41.41359477 226.82956855 41.36312145 234.04839665 C41.33650181 237.87306378 41.31164836 241.6977245 41.29092598 245.52242851 C41.27138903 249.11828892 41.24725428 252.7140884 41.21950912 256.30989456 C41.20562911 258.26703596 41.19669933 260.22421047 41.18788147 262.18138123 C41.17319824 263.91255188 41.17319824 263.91255188 41.15821838 265.67869568 C41.15176583 266.688059 41.14531328 267.69742231 41.1386652 268.7373724 C41 271 41 271 40 272 C37.0546443 272.10110353 34.1332244 272.13969279 31.1875 272.1328125 C29.86141724 272.13424759 29.86141724 272.13424759 28.50854492 272.13571167 C26.63557871 272.13639351 24.76261014 272.13453893 22.88964844 272.13037109 C20.01231612 272.12502289 17.13513992 272.13031593 14.2578125 272.13671875 C12.44270799 272.13605797 10.62760357 272.13477681 8.8125 272.1328125 C7.94584717 272.13483673 7.07919434 272.13686096 6.1862793 272.13894653 C0.11495009 272.11495009 0.11495009 272.11495009 -1 271 C-1.09754337 269.55703654 -1.12555454 268.10931203 -1.12584114 266.66305542 C-1.12844889 265.72116426 -1.13105664 264.77927311 -1.13374341 263.8088398 C-1.13039732 262.23839818 -1.13039732 262.23839818 -1.12698364 260.63623047 C-1.12854363 259.53352247 -1.13010362 258.43081448 -1.13171089 257.29469109 C-1.13572609 253.56884329 -1.13252923 249.84303565 -1.12939453 246.1171875 C-1.13074834 243.45859659 -1.13249174 240.80000852 -1.13470459 238.14141846 C-1.13916299 231.65143264 -1.13818551 225.16145835 -1.13529195 218.67147207 C-1.13303819 213.39928689 -1.13272527 208.12710496 -1.13381577 202.85491943 C-1.133969 202.10599611 -1.13412223 201.35707279 -1.13428011 200.58545482 C-1.13459982 199.06427208 -1.13492403 197.54308935 -1.1352527 196.02190661 C-1.1381077 181.74083151 -1.13482016 167.45976282 -1.12945233 153.17868876 C-1.12498428 140.91144034 -1.1257602 128.64420138 -1.13037109 116.37695312 C-1.13571651 102.14873918 -1.137833 87.92053086 -1.13475883 73.69231606 C-1.13444026 72.17657089 -1.13412589 70.66082573 -1.13381577 69.14508057 C-1.13366149 68.39920649 -1.13350721 67.65333242 -1.13334826 66.8848561 C-1.13248301 61.61592402 -1.13394616 56.3469955 -1.13629532 51.07806396 C-1.13909316 44.66141961 -1.13835541 38.24478749 -1.13301457 31.82814455 C-1.13037733 28.55112444 -1.12990664 25.27412912 -1.13266373 21.99710846 C-1.13537209 18.45264136 -1.13199796 14.90823284 -1.12698364 11.36376953 C-1.12921436 10.31680845 -1.13144509 9.26984737 -1.13374341 8.1911602 C-1.13113566 7.24926905 -1.12852791 6.30737789 -1.12584114 5.33694458 C-1.12567879 4.51767046 -1.12551644 3.69839634 -1.12534916 2.85429573 C-1 1 -1 1 0 0 Z " fill="currentColor" transform="translate(840,322)"/>
<path d="M0 0 C8.51111189 -0.13446338 17.02149569 -0.20661984 25.5335083 -0.25 C26.66076324 -0.25971832 27.78801819 -0.26943665 28.94943237 -0.27944946 C53.77349005 -0.46162731 84.66268273 -0.57558295 104.43585205 16.97265625 C106.2588467 18.91127424 107.78632837 20.86468991 109.2835083 23.0625 C109.71534424 23.66964844 110.14718018 24.27679688 110.59210205 24.90234375 C115.3782097 33.26561145 114.42351836 45.2612654 112.62335205 54.421875 C109.54331805 63.86197922 103.58507129 70.81049076 95.2835083 76.0625 C97.92785669 78.14105313 100.52785417 79.75257879 103.5335083 81.25 C113.08774547 86.52997317 118.92765787 94.25285583 122.0647583 104.65234375 C124.48975146 115.51695127 123.7560096 127.2485919 118.2835083 137.0625 C107.8939066 153.41600294 89.94616258 160.51695422 71.82647705 164.8984375 C52.33113847 169.02205885 32.15428316 169.44925026 12.29811096 169.14619446 C6.58726323 169.06342615 0.8775581 169.05353737 -4.83384705 169.05006409 C-9.84151943 169.04048895 -14.84879443 169.00343741 -19.85629272 168.96182251 C-22.38161884 168.94564896 -24.90702854 168.93939255 -27.43240356 168.94320679 C-31.01620465 168.94594938 -34.5978372 168.91075842 -38.18133545 168.8671875 C-39.81398346 168.88080574 -39.81398346 168.88080574 -41.47961426 168.8946991 C-46.24281527 168.80261383 -48.95160001 168.56971866 -52.97918701 165.89892578 C-56.03718077 161.15984101 -54.80031434 155.27311316 -54.25641441 149.93832397 C-53.89507114 146.35198989 -53.63221805 142.75804441 -53.35955811 139.1640625 C-53.30085258 138.41503159 -53.24214705 137.66600067 -53.18166256 136.89427185 C-52.57527397 128.84887539 -52.44685878 120.81553256 -52.41571045 112.75 C-52.41283146 112.02643311 -52.40995247 111.30286621 -52.40698624 110.55737305 C-52.39549508 106.87121869 -52.39439343 103.18518785 -52.40081787 99.49902344 C-52.40545755 96.54118677 -52.39846147 93.5837607 -52.38031006 90.62597656 C-52.22695289 65.356406 -52.69345899 39.70525837 -58.16571045 14.92578125 C-58.97582643 10.71432724 -59.40354973 8.31730234 -57.29656982 4.46923828 C-53.49416087 0.92229018 -50.14747115 1.23519343 -45.10321045 1.13671875 C-44.12598526 1.0991748 -43.14876007 1.06163086 -42.141922 1.02294922 C-38.89622307 0.90636523 -35.65085774 0.8268634 -32.4039917 0.75 C-30.12889929 0.68098878 -27.85383431 0.61106799 -25.57879639 0.5402832 C-17.05360987 0.29295564 -8.52745563 0.14340567 0 0 Z M-10.7164917 32.0625 C-10.59837189 36.72576382 -10.47413304 41.3888088 -10.34417725 46.05175781 C-10.30081929 47.63862657 -10.25914483 49.22554224 -10.21917725 50.8125 C-10.16149538 53.09128979 -10.09779532 55.36984322 -10.03289795 57.6484375 C-10.01618546 58.35994965 -9.99947296 59.07146179 -9.98225403 59.80453491 C-9.91927233 63.55910817 -9.91927233 63.55910817 -8.7164917 67.0625 C30.1075969 71.10614921 30.1075969 71.10614921 65.3460083 58.625 C69.12849658 53.79021345 69.12849658 53.79021345 70.2991333 47.890625 C69.6633432 43.37954286 68.37808099 40.60909099 64.8460083 37.6875 C54.16538066 30.70252432 40.57955352 30.88545325 28.2835083 30.9375 C26.60925781 30.94040039 26.60925781 30.94040039 24.90118408 30.94335938 C13.01686445 31.0033055 1.15248544 31.48367569 -10.7164917 32.0625 Z M-8.7164917 98.0625 C-8.7164917 110.6025 -8.7164917 123.1425 -8.7164917 136.0625 C-1.58198909 136.89477588 -1.58198909 136.89477588 5.48931885 137.22363281 C6.40444748 137.23324036 7.31957611 137.2428479 8.26243591 137.25274658 C9.22200699 137.25699646 10.18157806 137.26124634 11.17022705 137.265625 C12.18969925 137.27132507 13.20917145 137.27702515 14.25953674 137.28289795 C16.40675842 137.29229458 18.55399417 137.29886053 20.70123291 137.30273438 C23.94441568 137.31242058 27.18695862 137.34348794 30.42999268 137.375 C44.97286874 137.44975728 59.70086956 137.45913368 72.2835083 129.0625 C76.32721797 124.8215362 77.60121614 122.05674353 77.4944458 116.15234375 C77.02983539 111.54925908 74.92120056 108.74924551 71.8460083 105.4375 C52.28480378 90.74297197 13.209371 96.84439652 -8.7164917 98.0625 Z " fill="currentColor" transform="translate(2571.7164916992188,342.9375)"/>
<path d="M0 0 C2 2 2 2 2.33496094 5.23339844 C1.95569592 9.49819488 0.89428686 11.65368417 -1.359375 15.265625 C-1.70502502 15.82570251 -2.05067505 16.38578003 -2.40679932 16.96282959 C-3.13587656 18.13706911 -3.87248646 19.3066621 -4.61621094 20.47167969 C-5.74937361 22.24901752 -6.85662189 24.04056572 -7.9609375 25.8359375 C-14.16123619 35.76218183 -14.16123619 35.76218183 -18 38 C-23.52435508 37.35763313 -26.60676474 33.72088756 -30.4921875 30.10546875 C-38.62856675 23.27445876 -46.52224976 20.62587485 -56.95703125 20.71484375 C-63.47195379 21.32535639 -68.18699536 24.7536641 -73 29 C-74.6027775 31.08779191 -76.03969556 33.09861306 -77.4375 35.3125 C-78.01890747 36.22793579 -78.01890747 36.22793579 -78.61206055 37.16186523 C-82.67405025 43.77513161 -85.44427355 50.69455423 -88 58 C-88.36738281 59.02222656 -88.73476562 60.04445313 -89.11328125 61.09765625 C-92.47186428 71.14747033 -94.29831177 81.56389586 -96 92 C-96.12149414 92.73331543 -96.24298828 93.46663086 -96.36816406 94.22216797 C-102.10281932 130.79557384 -101.2697773 179.18937244 -79.046875 210.3515625 C-70.93179334 220.85161091 -60.2526446 227.71994204 -47 230 C-43.93105866 230.30737765 -40.89570493 230.38024775 -37.8125 230.375 C-36.9575293 230.37556396 -36.10255859 230.37612793 -35.22167969 230.37670898 C-26.02328329 230.22373674 -17.26364798 228.40831283 -8.30664062 226.45751953 C-4.88661711 225.77916178 -1.46502544 225.37923666 2 225 C4.01615432 230.47241886 5.64957287 236.01402937 7 241.6875 C7.309375 242.92886719 7.61875 244.17023438 7.9375 245.44921875 C8 249 8 249 6.109375 252.171875 C2.72208037 255.66342096 -1.36087149 257.58810095 -5.75 259.5625 C-7.00538574 260.13883179 -7.00538574 260.13883179 -8.28613281 260.72680664 C-31.50542665 271.0949089 -57.60319698 274.79250755 -82.02294922 266.10009766 C-90.23406436 262.88535841 -97.0430273 258.32978161 -104 253 C-104.65226562 252.53207031 -105.30453125 252.06414062 -105.9765625 251.58203125 C-124.92616892 236.98814005 -134.35575206 211.67672724 -139.8125 189.3125 C-140.00739014 188.51900146 -140.20228027 187.72550293 -140.40307617 186.90795898 C-143.96375112 171.35491825 -144.37008922 155.94118955 -144.3125 140.0625 C-144.31067719 139.02263947 -144.30885437 137.98277893 -144.30697632 136.91140747 C-144.26125235 121.4264726 -143.87544467 106.26023392 -141 91 C-140.83371094 90.0925 -140.66742187 89.185 -140.49609375 88.25 C-134.07196117 54.36864892 -120.89361622 17.53682725 -91.76953125 -3.421875 C-63.92976892 -21.46176971 -27.31549301 -17.67786292 0 0 Z " fill="currentColor" transform="translate(1150,330)"/>
<path d="M0 0 C26.58191531 -0.70029195 58.99320544 -0.52932562 80.32958984 17.44140625 C87.49929459 24.30088338 90.44720124 32.13938287 91.07958984 41.94140625 C90.71145109 53.02887932 87.10176861 63.17939772 79.58740234 71.4609375 C76.31606803 74.44875617 72.60792164 76.77421829 68.82958984 79.06640625 C69.43544922 79.39511719 70.04130859 79.72382813 70.66552734 80.0625 C82.33431387 86.68678035 92.60681925 95.21694265 96.70458984 108.37890625 C99.47680082 120.21030666 98.01248563 132.3234342 92.16162109 143.0390625 C81.42852762 159.37476781 63.21315292 167.13002888 44.89208984 171.81640625 C44.11857178 172.01516357 43.34505371 172.2139209 42.5480957 172.41870117 C29.37718498 175.58292058 16.3070544 176.44385525 2.82958984 176.37890625 C2.05767303 176.37741577 1.28575623 176.37592529 0.490448 176.37438965 C-22.67825248 176.29489749 -45.51499219 174.04201086 -68.17041016 169.06640625 C-69.62488676 163.17694627 -68.62322041 157.92640487 -67.73291016 152.00390625 C-67.60464844 150.91529297 -67.47638672 149.82667969 -67.34423828 148.70507812 C-66.20061521 141.1812421 -66.20061521 141.1812421 -63.58935547 138.35546875 C-59.7188049 136.01395207 -56.59671779 135.87004335 -52.20947266 136.69921875 C-50.39733311 137.16873962 -48.59242211 137.66695641 -46.79541016 138.19140625 C-31.54634056 142.43105789 -16.2241522 143.42528473 -0.45605469 143.38208008 C1.96122541 143.37889751 4.37730102 143.40260166 6.79443359 143.42773438 C21.54757759 143.48805856 37.54077378 142.76932689 49.39208984 132.94140625 C52.53697557 128.83938139 52.43031283 124.00756433 51.82958984 119.06640625 C48.9238307 113.143128 45.0300627 110.287344 39.04443359 108.00390625 C26.69369333 103.9220091 14.36152 102.75011867 1.38818359 103.046875 C-1.09553055 103.07699233 -3.57925505 103.10626536 -6.06298828 103.13476562 C-9.92112586 103.19081665 -13.77873315 103.2548434 -17.63647461 103.33374023 C-21.39914586 103.40610386 -25.16115446 103.44739707 -28.92431641 103.484375 C-30.65712608 103.5324958 -30.65712608 103.5324958 -32.42494202 103.58158875 C-40.37114687 103.6320693 -40.37114687 103.6320693 -44.41064453 100.77319336 C-48.22234944 94.91021162 -45.88966854 87.22305591 -44.73291016 80.69140625 C-44.59820313 79.88574219 -44.46349609 79.08007812 -44.32470703 78.25 C-43.31147361 72.34853316 -43.31147361 72.34853316 -42.17041016 70.06640625 C-41.28409912 70.07306808 -41.28409912 70.07306808 -40.37988281 70.0798645 C-34.14895076 70.12461235 -27.91806539 70.15448263 -21.68701172 70.17626953 C-19.37123761 70.18623746 -17.05547578 70.19981666 -14.73974609 70.21728516 C16.52345567 71.51937868 16.52345567 71.51937868 43.82958984 59.06640625 C46.35188705 55.0136304 46.96189032 52.05865981 46.32958984 47.31640625 C44.18759492 42.67541724 41.43842016 40.70067603 36.70849609 38.8359375 C35.61408203 38.52011719 34.51966797 38.20429688 33.39208984 37.87890625 C32.30025391 37.55535156 31.20841797 37.23179687 30.08349609 36.8984375 C24.02082631 35.34819901 18.30603338 34.89765925 12.08349609 34.86328125 C11.24338486 34.85640289 10.40327362 34.84952454 9.53770447 34.84243774 C6.82245551 34.82526796 4.1073903 34.8189762 1.39208984 34.81640625 C0.47041016 34.8147345 -0.45126953 34.81306274 -1.40087891 34.81134033 C-18.00702717 34.80953091 -34.01716036 35.77195971 -50.2121582 39.69824219 C-54.26908215 40.46097019 -57.08010318 39.68145121 -60.60791016 37.69140625 C-65.07666572 30.1838969 -59.82354599 16.35287959 -58.17041016 8.06640625 C-39.04380708 3.06913728 -19.73990621 0.60396563 0 0 Z " fill="currentColor" transform="translate(2081.17041015625,338.93359375)"/>
<path d="M0 0 C0.80050781 -0.03738281 1.60101562 -0.07476562 2.42578125 -0.11328125 C5.72252896 0.50735001 6.77607466 1.56644776 8.6875 4.3125 C9.02923661 7.12163767 9.10653618 9.51129328 9 12.3125 C8.98453125 13.14104492 8.9690625 13.96958984 8.953125 14.82324219 C8.88658573 17.98718454 8.7856511 21.14937728 8.6875 24.3125 C8.62670172 26.60090308 8.56890697 28.88937151 8.51127625 31.17785645 C8.26653865 40.89033433 7.98590814 50.60153723 7.6875 60.3125 C8.57703369 60.17102539 9.46656738 60.02955078 10.38305664 59.88378906 C17.67777952 58.77390276 24.74735343 57.98069071 32.125 58.0625 C33.04966064 58.06926758 33.97432129 58.07603516 34.92700195 58.08300781 C61.99760143 58.4748401 94.05196737 60.78353562 115.0625 80 C124.42823549 90.0486537 127.22069758 102.13842548 126.99609375 115.4296875 C126.15982791 125.95181723 122.38691334 134.25606264 115.6875 142.3125 C115.17574219 142.93640625 114.66398437 143.5603125 114.13671875 144.203125 C96.95906601 163.12838013 66.04126215 169.07790604 41.6875 170.3125 C38.37282033 170.39049076 35.06149784 170.38686862 31.74609375 170.3671875 C30.34286362 170.36237617 30.34286362 170.36237617 28.9112854 170.35746765 C26.89349642 170.34966551 24.87571367 170.34008588 22.85794067 170.32888794 C19.60572747 170.31207732 16.35356559 170.30399799 13.10131836 170.29663086 C7.41067993 170.27935406 1.72100276 170.22827915 -3.96923828 170.15991211 C-6.31356431 170.13631373 -8.6580026 170.12224171 -11.00244141 170.11694336 C-14.44239209 170.10771272 -17.88070362 170.06697141 -21.3203125 170.01953125 C-22.36808868 170.0234639 -23.41586487 170.02739655 -24.49539185 170.03144836 C-31.66027084 169.88632041 -31.66027084 169.88632041 -34.97290039 166.97192383 C-36.72679035 163.49003513 -36.73921127 161.08643631 -36.625 157.1875 C-36.60953125 156.44419434 -36.5940625 155.70088867 -36.578125 154.93505859 C-36.47351661 150.61560399 -36.26892718 146.30054115 -36.07421875 141.984375 C-34.28662511 101.4486579 -33.7208134 60.70451607 -40.5078125 20.6015625 C-42.04428044 10.86835751 -42.04428044 10.86835751 -40.01171875 6.546875 C-35.82740949 3.08316314 -31.41493171 3.06249355 -26.125 2.5625 C-25.12146484 2.45035156 -24.11792969 2.33820313 -23.08398438 2.22265625 C-21.09915854 2.00312444 -19.11320251 1.79355807 -17.1262207 1.59448242 C-14.54983946 1.33628543 -11.97844559 1.0504615 -9.40625 0.75390625 C-6.27075576 0.40618414 -3.1552691 0.09811802 0 0 Z M7.6875 91.3125 C7.6875 106.1625 7.6875 121.0125 7.6875 136.3125 C12.58389034 138.27105614 16.23001706 138.63413772 21.36328125 138.6484375 C22.20610153 138.6550943 23.04892181 138.6617511 23.9172821 138.66860962 C25.70337758 138.67871969 27.48951071 138.68342715 29.27563477 138.68310547 C31.95331056 138.68742469 34.62926215 138.72360836 37.30664062 138.76171875 C51.17146215 138.85323413 66.94297154 138.29308263 77.6875 128.3125 C82.0880078 123.20741651 83.00475199 118.36698939 82.890625 111.8046875 C82.45235654 106.42747057 79.93344907 103.31830719 76.1875 99.6875 C68.96821734 93.69787538 59.78381284 91.6995782 50.6875 90.3125 C49.95660156 90.20035156 49.22570313 90.08820313 48.47265625 89.97265625 C42.99828611 89.28952972 37.51020493 89.18230052 32 89.125 C31.30648437 89.11194824 30.61296875 89.09889648 29.8984375 89.08544922 C22.26168854 89.07336576 15.47436764 90.27425098 7.6875 91.3125 Z " fill="currentColor" transform="translate(2265.3125,341.6875)"/>
<path d="M0 0 C3.63942974 -0.21488243 5.75355523 0.04578593 8.85058594 2.02246094 C12.37539929 7.08316713 11.52350783 11.80537775 11.16943359 17.79833984 C11.11796677 19.01204758 11.06649994 20.22575531 11.01347351 21.47624207 C10.84364063 25.34948819 10.63786901 29.21987285 10.43115234 33.09130859 C10.30963955 35.71815306 10.19047054 38.34510707 10.07373047 40.97216797 C9.78254751 47.40923277 9.46184745 53.84431862 9.11865234 60.27880859 C10.00818604 60.13733398 10.89771973 59.99585938 11.81420898 59.85009766 C19.10893186 58.74021135 26.17850577 57.9469993 33.55615234 58.02880859 C34.48081299 58.03557617 35.40547363 58.04234375 36.3581543 58.04931641 C62.67813354 58.43028387 95.91430551 60.36968342 115.99365234 79.65380859 C126.18555774 90.5555074 128.84012196 101.34300026 128.39990234 115.99755859 C127.72577204 128.91838935 121.2279881 139.11014261 112.00146484 147.89599609 C90.55732895 165.62082386 60.08509355 170.5137235 33.13037109 170.33740234 C32.19459732 170.33391281 31.25882355 170.33042328 30.29469299 170.326828 C28.28357101 170.31845938 26.27245615 170.30819978 24.26135254 170.29620361 C21.05524822 170.27845765 17.84921003 170.27006507 14.64306641 170.26269531 C9.07627417 170.24562115 3.51047637 170.19465156 -2.0559082 170.1262207 C-4.34489398 170.10263311 -6.63399453 170.08855266 -8.9230957 170.08325195 C-12.286154 170.07400822 -15.64754428 170.03324019 -19.01025391 169.98583984 C-20.54136559 169.99173882 -20.54136559 169.99173882 -22.10340881 169.99775696 C-26.85819868 169.89940842 -29.14679482 169.83537954 -33.02807617 166.89453125 C-35.19203171 163.84030656 -35.44715668 162.54199934 -35.25634766 158.84130859 C-35.20188477 157.72900879 -35.14742187 156.61670898 -35.09130859 155.47070312 C-34.95020125 152.60175758 -34.79534364 149.73388244 -34.63476562 146.8659668 C-33.822086 131.64096391 -33.66101234 116.42156176 -33.64111328 101.17871094 C-33.63675213 98.34654701 -33.62291314 95.51469174 -33.60009766 92.68261719 C-33.40132807 67.4524722 -34.26597328 42.16436003 -39.33056641 17.36083984 C-40.57251652 10.41120413 -40.57251652 10.41120413 -38.31640625 6.71484375 C-35.11925282 3.51640812 -33.04914458 3.39910531 -28.58837891 2.91552734 C-27.88291428 2.8338179 -27.17744965 2.75210846 -26.4506073 2.66792297 C-24.20009731 2.41310168 -21.94764776 2.18992763 -19.69384766 1.96630859 C-18.19818608 1.79832408 -16.70273874 1.6284204 -15.20751953 1.45654297 C-10.14463263 0.88858979 -5.07041108 0.49062951 0 0 Z M9.11865234 91.27880859 C9.09367021 96.0619266 9.07566071 100.84500545 9.0637207 105.62817383 C9.05873562 107.2505764 9.05194514 108.87297459 9.04321289 110.49536133 C8.99612604 119.47786978 9.02372143 128.34530798 10.11865234 137.27880859 C14.30047236 138.44186504 18.38205582 138.47745294 22.69677734 138.51708984 C23.54101257 138.52516159 24.3852478 138.53323334 25.25506592 138.54154968 C27.04713911 138.5553734 28.83923844 138.56610321 30.63134766 138.57397461 C32.43481352 138.58539506 34.23824831 138.60568536 36.04150391 138.63549805 C50.00564595 138.86600168 66.96067539 139.08430349 78.11865234 129.27880859 C82.65275758 124.74470336 84.28070712 120.98785554 84.49365234 114.59130859 C84.40585992 108.52631498 83.41261463 104.64123953 79.11865234 100.27880859 C69.28426319 92.00329522 54.61059755 89.65001627 42.11865234 89.27880859 C41.46670898 89.25834473 40.81476562 89.23788086 40.14306641 89.21679688 C37.88486029 89.15539397 35.62751372 89.11904816 33.36865234 89.09130859 C32.67852051 89.0780957 31.98838867 89.06488281 31.27734375 89.05126953 C23.8174019 89.04107139 16.48352972 90.20522018 9.11865234 91.27880859 Z " fill="currentColor" transform="translate(2780.88134765625,341.72119140625)"/>
<path d="M0 0 C0.72011536 -0.00438225 1.44023073 -0.00876451 2.18216777 -0.01327956 C4.61345211 -0.02671483 7.04470017 -0.03285699 9.47601318 -0.03897095 C11.21186997 -0.04686825 12.94772511 -0.05513697 14.68357849 -0.06375122 C20.40050682 -0.09001636 26.11744263 -0.10528424 31.83441162 -0.11953735 C33.79966995 -0.12489536 35.76492824 -0.13027286 37.73018646 -0.13566971 C45.90367116 -0.15730584 54.07715384 -0.1760434 62.25065994 -0.1872921 C73.97783039 -0.20353546 85.70466967 -0.23671421 97.43171525 -0.29369295 C105.66953741 -0.33235799 113.90727088 -0.35192077 122.14518142 -0.35721266 C127.06894563 -0.36087112 131.99235701 -0.37294438 136.91602325 -0.4053154 C141.54867452 -0.4353353 146.18075839 -0.44172969 150.8134861 -0.42993164 C152.51426874 -0.42971039 154.21507724 -0.43805815 155.91576958 -0.45558548 C158.23774556 -0.47821374 160.55765307 -0.47001406 162.87963867 -0.45410156 C164.17898975 -0.45741171 165.47834084 -0.46072186 166.81706619 -0.46413231 C171.06338137 0.31305984 172.54410781 1.81782453 175.19378662 5.15390015 C175.70135498 7.55404663 175.70135498 7.55404663 175.53363037 10.0249939 C175.48142334 10.92927124 175.42921631 11.83354858 175.37542725 12.76522827 C175.29486084 13.69786499 175.21429443 14.63050171 175.13128662 15.59140015 C175.07779053 16.52016968 175.02429443 17.44893921 174.96917725 18.40585327 C174.591135 23.99689911 174.17488154 29.27010449 170.91644287 34.01327515 C168.42585662 35.66237081 166.60265588 35.47979719 163.63128662 35.40390015 C161.85818115 35.36329468 161.85818115 35.36329468 160.04925537 35.3218689 C155.49930745 35.12364422 150.95383725 34.87365352 146.40861511 34.58889771 C137.96309936 34.08629311 129.50909886 33.86283363 121.05316162 33.6187439 C119.51002662 33.57324847 117.96689508 33.52763575 116.42376709 33.48190308 C112.68047908 33.37121752 108.93714695 33.26211544 105.19378662 33.15390015 C105.27962148 44.24952564 105.37499531 55.34502921 105.48131371 66.44047832 C105.53045208 71.59712444 105.57675901 76.75375764 105.61566162 81.91049194 C105.66118195 87.89147195 105.71797951 93.87228631 105.77972412 99.8531189 C105.78891624 100.83573574 105.79810837 101.81835258 105.80757904 102.8307457 C105.91310582 113.29299344 106.15222507 123.71559003 106.85491943 134.15634155 C106.91141222 135.02000871 106.96790501 135.88367586 107.0261097 136.77351475 C107.29541634 140.8128927 107.59664893 144.84561756 107.9536438 148.87818909 C108.05863242 150.2979228 108.16297109 151.71770478 108.26654053 153.13754272 C108.37253571 154.35508743 108.47853088 155.57263214 108.58773804 156.82707214 C108.03810417 161.4686022 106.57141229 162.95458077 103.19378662 166.15390015 C101.10760498 166.915802 101.10760498 166.915802 99.03363037 166.93026733 C98.24931641 166.9491803 97.46500244 166.96809326 96.65692139 166.98757935 C95.82346191 166.97543396 94.99000244 166.96328857 94.13128662 166.95077515 C93.26237793 166.9565155 92.39346924 166.96225586 91.49822998 166.96817017 C89.66592798 166.97224286 87.8335382 166.96124208 86.00140381 166.93612671 C83.20156902 166.90398947 80.40750505 166.93583423 77.60784912 166.97421265 C75.82398225 166.97024761 74.04011897 166.96255985 72.25628662 166.95077515 C71.42282715 166.96292053 70.58936768 166.97506592 69.73065186 166.98757935 C68.55418091 166.9592099 68.55418091 166.9592099 67.35394287 166.93026733 C66.66953125 166.92549377 65.98511963 166.92072021 65.27996826 166.915802 C61.86551258 165.66879644 59.88895297 163.25848035 58.19378662 160.15390015 C57.8915173 157.3168843 57.86325913 155.21313291 58.13861084 152.43515015 C58.18983219 151.68161758 58.24105354 150.92808502 58.29382706 150.15171814 C58.40650676 148.51356829 58.53050789 146.87616651 58.66452408 145.23962402 C59.02772387 140.74508377 59.29323805 136.24465531 59.56390381 131.7437439 C59.62222696 130.79833237 59.68055012 129.85292084 59.74064064 128.87886047 C60.35916722 118.32613778 60.40817577 107.78435954 60.38909912 97.21640015 C60.38825066 96.2678717 60.38740219 95.31934326 60.38652802 94.34207153 C60.37982179 88.58711811 60.35811172 82.83231266 60.33111572 77.0774231 C60.31009883 72.09381932 60.30140686 67.11019235 60.29144287 62.1265564 C60.27043506 52.46894752 60.23662998 42.81143526 60.19378662 33.15390015 C59.568974 33.1789563 58.94416138 33.20401245 58.30041504 33.22982788 C51.74577777 33.49220971 45.19101378 33.75123671 38.63616943 34.00839233 C36.19603181 34.10455221 33.75592675 34.20154244 31.31585693 34.29940796 C27.7908761 34.44063777 24.26578556 34.57879413 20.74066162 34.71640015 C19.66516052 34.76014771 18.58965942 34.80389526 17.48156738 34.84896851 C15.40990292 34.92871734 13.33781655 34.99827868 11.26544189 35.05673218 C9.14898809 35.12368354 7.03345075 35.22572078 4.91998291 35.35653687 C-2.96405357 35.69480678 -2.96405357 35.69480678 -7.03717041 33.07870483 C-9.20442574 29.49552531 -9.32821103 27.52052885 -9.11090088 23.35702515 C-9.05418213 22.06925171 -8.99746338 20.78147827 -8.93902588 19.4546814 C-8.85322174 18.1044125 -8.76728264 16.75415217 -8.68121338 15.40390015 C-8.61643845 14.03812072 -8.55391503 12.67223254 -8.49371338 11.3062439 C-7.92727076 0.0340358 -7.92727076 0.0340358 0 0 Z " fill="currentColor" transform="translate(1813.8062133789063,344.8460998535156)"/>
<path d="M0 0 C0.69609375 -0.03738281 1.3921875 -0.07476562 2.109375 -0.11328125 C5.35290816 0.53187407 6.97030382 1.96180982 9.25 4.3125 C9.7734375 6.87890625 9.7734375 6.87890625 9.625 9.875 C9.54346428 11.54128952 9.54346428 11.54128952 9.46028137 13.24124146 C9.32280946 15.97785868 9.16775111 18.71276979 9.00053406 21.44772339 C8.28216712 33.4951636 8.08672454 45.50353675 8.08203125 57.5703125 C8.07880114 59.57160463 8.07543591 61.57289654 8.07194519 63.57418823 C8.0660069 67.74754379 8.06409953 71.92087881 8.06469727 76.09423828 C8.0647781 80.29805849 8.05789517 84.50176874 8.04418945 88.70556641 C8.02421458 94.86883402 8.01711057 101.03201409 8.01953125 107.1953125 C8.01931095 108.19327095 8.01909065 109.1912294 8.01886368 110.21942902 C8.02779543 120.31919594 8.14951813 130.37231643 8.88427734 140.44824219 C8.96802187 141.61457215 8.96802187 141.61457215 9.05345821 142.80446434 C9.31851215 146.37202244 9.62140908 149.93044636 9.98750305 153.48904419 C10.85098271 163.48214377 10.85098271 163.48214377 8.33129883 167.13256836 C4.26991556 170.00588198 1.49311897 170.16842619 -3.375 170.07421875 C-4.1995166 170.07758743 -5.0240332 170.08095612 -5.87353516 170.08442688 C-7.61171729 170.08412871 -9.34995288 170.06894306 -11.08789062 170.03979492 C-13.74252401 170.00011176 -16.39215924 170.01909301 -19.046875 170.04492188 C-20.73960264 170.03736219 -22.43231922 170.02640814 -24.125 170.01171875 C-24.91471191 170.01870285 -25.70442383 170.02568695 -26.51806641 170.03288269 C-30.63994275 169.92772197 -32.34844021 169.60852456 -35.77001953 167.08618164 C-37.95226222 164.02915831 -38.31789167 162.91098677 -38.0546875 159.234375 C-37.99853271 158.25291504 -37.94237793 157.27145508 -37.88452148 156.26025391 C-37.75605835 154.67736572 -37.75605835 154.67736572 -37.625 153.0625 C-37.48797395 150.77345587 -37.35126304 148.48439287 -37.21484375 146.1953125 C-37.1360498 145.03547852 -37.05725586 143.87564453 -36.97607422 142.68066406 C-34.3542696 103.61973905 -33.82926308 63.36157315 -40.42871094 24.69311523 C-42.6934227 11.41415549 -42.6934227 11.41415549 -40.48046875 6.484375 C-36.14772871 3.03801812 -31.45894432 3.04983693 -26.0625 2.5625 C-25.01126953 2.45035156 -23.96003906 2.33820313 -22.87695312 2.22265625 C-20.80553182 2.00352643 -18.73307686 1.79393087 -16.65966797 1.59448242 C-14.02862462 1.33950213 -11.40347243 1.05470946 -8.77734375 0.75390625 C-5.85234731 0.42754589 -2.94300586 0.10510735 0 0 Z " fill="currentColor" transform="translate(2450.75,341.6875)"/>
<path d="M0 0 C1.30372559 -0.08241943 1.30372559 -0.08241943 2.63378906 -0.16650391 C3.71055908 -0.24807739 3.71055908 -0.24807739 4.80908203 -0.33129883 C8.21808993 0.72497408 10.12329331 3.34486638 11.89160156 6.31396484 C12.27960205 9.73600769 12.27960205 9.73600769 11.95117188 13.54125977 C11.90028664 14.24089907 11.8494014 14.94053837 11.79697418 15.66137886 C11.68500867 17.17962552 11.56158352 18.69706136 11.42797089 20.21355629 C11.06614765 24.37203469 10.80222681 28.5369853 10.53027344 32.70214844 C10.47169537 33.57305398 10.41311729 34.44395952 10.35276413 35.34125614 C9.743077 44.80545685 9.64022797 54.25846302 9.62597656 63.73974609 C9.62434006 64.59417171 9.62270355 65.44859734 9.62101746 66.32891464 C9.61522384 70.67984733 9.61925018 75.03067224 9.63085938 79.3815918 C9.6422973 83.76507324 9.63544711 88.14831261 9.62395477 92.53178596 C9.58081784 112.10775532 10.02539556 131.53465396 11.46289062 151.06079102 C11.53737427 152.16651459 11.61185791 153.27223816 11.68859863 154.41146851 C11.80851278 156.12597757 11.94739274 157.83963802 12.12878418 159.54873657 C12.38584482 162.96981012 11.88333863 164.32615863 9.93066406 167.20776367 C5.91003825 169.99423048 3.05200272 170.055505 -1.73339844 170.01318359 C-2.97017334 170.02391655 -2.97017334 170.02391655 -4.23193359 170.03486633 C-5.97004112 170.04262868 -7.70824647 170.03766212 -9.44628906 170.02075195 C-12.10115875 170.0015173 -14.75079634 170.04092917 -17.40527344 170.08544922 C-19.09798488 170.08573959 -20.7907011 170.08259936 -22.48339844 170.07568359 C-23.27311035 170.09096603 -24.06282227 170.10624847 -24.87646484 170.12199402 C-29.21707035 170.03051733 -30.70986282 169.65208714 -34.14428711 166.73828125 C-36.40862008 162.79054548 -36.60369111 160.1385503 -36.15917969 155.76318359 C-36.10753159 155.01680634 -36.05588348 154.27042908 -36.00267029 153.50143433 C-35.88894421 151.86568134 -35.7642532 150.23066276 -35.63000488 148.59646606 C-35.26287931 144.04045483 -34.99980939 139.47858943 -34.73730469 134.91552734 C-34.67964935 133.92720413 -34.62199402 132.93888092 -34.56259155 131.92060852 C-33.85395516 118.91258218 -33.85958049 105.90023963 -33.85839844 92.87646484 C-33.85385651 91.69627777 -33.84931458 90.5160907 -33.84463501 89.30014038 C-33.77023859 68.17908913 -34.21083528 46.86210619 -38.23339844 26.06396484 C-41.05859986 10.87600257 -41.05859986 10.87600257 -38.5390625 6.73413086 C-35.35137409 3.56021009 -33.28813834 3.43410411 -28.85058594 2.95068359 C-28.14749298 2.86897415 -27.44440002 2.78726471 -26.72000122 2.70307922 C-24.47621564 2.44827224 -22.23047473 2.22515897 -19.98339844 2.00146484 C-18.49620071 1.83346658 -17.00921697 1.66356246 -15.52246094 1.49169922 C-10.35493083 0.90947368 -5.17320841 0.52252168 0 0 Z " fill="currentColor" transform="translate(2966.1083984375,341.68603515625)"/></g>
</svg>
