<svg width="330" height="330" viewBox="0 0 330 330" fill="none" xmlns="http://www.w3.org/2000/svg">
<path d="M242.375 37.0002C243.93 38.3182 245.472 39.6512 247 41.0002C247.84 41.7212 248.681 42.4412 249.547 43.1842C262.413 54.4312 275.292 69.5472 281 86.0002C280.883 88.9822 280.184 89.8202 278.039 91.9222C277.242 92.5252 276.446 93.1282 275.625 93.7502C274.834 94.3642 274.042 94.9772 273.227 95.6092C271 97.0002 271 97.0002 268 97.0002C267.504 95.9732 267.007 94.9452 266.496 93.8872C252.633 65.4622 232.755 44.9632 202.563 34.1252C174.093 25.4182 144.721 27.5322 118.187 41.3122C111.527 44.8962 105.657 48.9572 100 54.0002C99.2342 54.6362 98.4692 55.2712 97.6802 55.9262C76.9132 73.4892 66.3412 99.5332 63.0002 126C65.6402 126 68.2802 126 71.0002 126C71.1592 124.947 71.3172 123.894 71.4802 122.809C75.6942 96.2142 87.4452 72.6432 109.207 55.9412C118.131 49.7382 127.735 44.5972 138 41.0002C139.096 40.6072 140.191 40.2142 141.32 39.8092C158.124 34.6892 179.266 34.4812 196 40.0002C197.578 40.5102 197.578 40.5102 199.187 41.0312C212.558 45.7882 224.506 52.4142 235 62.0002C235.779 62.6972 236.557 63.3952 237.359 64.1132C245.997 72.2592 252.192 82.0022 257.563 92.5002C257.909 93.1702 258.256 93.8412 258.614 94.5312C261.913 101.239 261.913 101.239 261 105C258.594 107.238 258.594 107.238 255.5 109.312C254.479 110.01 253.458 110.707 252.406 111.426C251.612 111.945 250.818 112.465 250 113C247.101 110.527 246.039 108.029 244.687 104.5C235.975 83.1552 221.135 68.2122 200.037 58.8412C192.446 55.7062 184.235 53.3482 176 53.0002C174.938 52.9482 173.876 52.8972 172.781 52.8442C148.687 52.2362 127.96 59.8852 110.187 76.3122C97.1942 90.2912 89.8892 107.293 87.0002 126C89.6402 125.67 92.2802 125.34 95.0002 125C95.1842 123.97 95.3692 122.94 95.5592 121.879C99.5642 101.476 109.56 85.3572 126.375 73.0622C144.887 61.0812 164.359 57.8122 185.773 62.0232C200.019 65.1082 211.738 72.9232 222 83.0002C222.701 83.6772 223.403 84.3542 224.125 85.0512C231.988 93.2052 241 107.214 241 118.812C239.65 121.766 237.548 123.052 235 125C236.346 125.012 236.346 125.012 237.72 125.025C246.167 125.102 254.613 125.19 263.059 125.288C267.402 125.338 271.745 125.384 276.087 125.422C280.276 125.459 284.465 125.505 288.653 125.558C290.254 125.577 291.854 125.592 293.454 125.603C295.691 125.62 297.927 125.649 300.164 125.681C301.438 125.694 302.713 125.708 304.026 125.722C307 126 307 126 309 128C309.328 130.715 309.131 133.252 309 136C308.67 136.33 308.34 136.66 308 137C302.39 137 296.78 137 291 137C291 188.15 291 239.3 291 292C296.61 292 302.22 292 308 292C310 294 310 294 310.266 295.875C310.26 296.576 310.255 297.277 310.25 298C310.255 298.701 310.26 299.402 310.266 300.125C310 302 310 302 308 304C304.907 304.199 301.903 304.273 298.809 304.259C297.379 304.264 297.379 304.264 295.921 304.269C292.76 304.278 289.599 304.272 286.437 304.266C284.248 304.267 282.058 304.269 279.869 304.271C275.276 304.274 270.682 304.27 266.089 304.261C260.19 304.249 254.292 304.256 248.393 304.268C243.871 304.275 239.348 304.273 234.826 304.268C232.65 304.266 230.475 304.268 228.3 304.273C225.263 304.278 222.228 304.27 219.191 304.259C218.285 304.263 217.379 304.267 216.446 304.271C210.229 304.229 210.229 304.229 208 302C207.77 300.125 207.77 300.125 207.813 298C207.822 296.948 207.822 296.948 207.832 295.875C208 294 208 294 209 292C215.93 292 222.86 292 230 292C229.898 286.944 229.898 286.944 229.794 281.786C229.578 270.63 229.434 259.475 229.326 248.318C229.26 241.555 229.168 234.795 229.019 228.033C228.875 221.504 228.8 214.976 228.767 208.445C228.743 205.958 228.696 203.471 228.626 200.984C228.067 180.424 228.067 180.424 232.981 175.19C236.069 172.55 239.316 170.69 243 169C243.99 169.66 244.98 170.32 246 171C246.369 173.136 246.369 173.136 246.361 175.834C246.367 177.365 246.367 177.365 246.373 178.928C246.362 180.052 246.352 181.176 246.341 182.334C246.341 183.515 246.341 184.695 246.342 185.912C246.34 189.153 246.325 192.395 246.304 195.636C246.285 199.022 246.284 202.408 246.28 205.794C246.271 212.208 246.246 218.622 246.216 225.035C246.183 232.336 246.166 239.637 246.151 246.938C246.12 261.959 246.067 276.979 246 292C247.98 292 249.96 292 252 292C251.988 291.014 251.988 291.014 251.975 290.008C251.776 273.991 251.627 257.974 251.534 241.956C251.487 234.21 251.424 226.464 251.321 218.718C251.231 211.965 251.173 205.212 251.153 198.458C251.141 194.883 251.114 191.31 251.048 187.736C250.976 183.74 250.974 179.747 250.978 175.75C250.946 174.573 250.914 173.395 250.88 172.182C250.933 167.471 250.986 164.286 253.967 160.506C262.272 153 262.272 153 267 153C267 198.87 267 244.74 267 292C269.97 292 272.94 292 276 292C275.994 291.243 275.987 290.486 275.98 289.705C275.826 271.277 275.71 252.849 275.637 234.42C275.601 225.508 275.552 216.597 275.472 207.685C275.402 199.917 275.357 192.15 275.341 184.381C275.332 180.268 275.311 176.156 275.26 172.043C275.212 168.171 275.198 164.299 275.208 160.426C275.206 159.006 275.192 157.586 275.166 156.167C275.131 154.225 275.143 152.282 275.158 150.34C275.152 149.254 275.145 148.168 275.139 147.05C276 144 276 144 283 138C259.9 137.67 236.8 137.34 213 137C213 127 213 127 214 126C216.016 125.766 218.038 125.587 220.063 125.438C221.167 125.354 222.272 125.27 223.41 125.184C224.265 125.123 225.119 125.062 226 125C223.95 111.792 217.479 101.19 208 92.0002C207.155 91.1412 207.155 91.1412 206.293 90.2662C195.091 79.6902 179.65 76.3392 164.695 76.7232C148.97 77.9032 135.761 84.4612 125 96.0002C117.665 104.728 113.348 114.901 111 126C111.843 125.988 112.686 125.977 113.555 125.965C114.65 125.956 115.746 125.947 116.875 125.938C118.511 125.92 118.511 125.92 120.18 125.902C123 126 123 126 125 127C125.027 128.479 125.046 129.958 125.063 131.438C125.074 132.261 125.086 133.085 125.098 133.934C125 136 125 136 124 137C119.05 137 114.1 137 109 137C109 188.15 109 239.3 109 292C114.94 292 120.88 292 127 292C128 293 128 293 128.098 295.285C128.086 296.202 128.074 297.118 128.063 298.062C128.053 298.982 128.044 299.901 128.035 300.848C128.024 301.558 128.012 302.268 128 303C124.555 304.722 120.584 304.138 116.793 304.129C115.361 304.132 115.361 304.132 113.9 304.135C110.734 304.139 107.568 304.136 104.402 304.133C102.21 304.133 100.018 304.134 97.8272 304.136C93.2292 304.137 88.6312 304.135 84.0342 304.13C78.1262 304.125 72.2192 304.128 66.3112 304.134C61.7852 304.138 57.2582 304.136 52.7312 304.134C50.5522 304.133 48.3732 304.134 46.1942 304.136C43.1552 304.139 40.1172 304.135 37.0782 304.129C35.7132 304.132 35.7132 304.132 34.3212 304.136C28.1142 304.114 28.1142 304.114 27.0002 303C26.9022 301.336 26.8702 299.667 26.8752 298C26.8712 296.639 26.8712 296.639 26.8672 295.25C27.0002 293 27.0002 293 28.0002 292C29.5622 291.913 31.1272 291.893 32.6912 291.902C33.6362 291.906 34.5802 291.909 35.5532 291.912C36.5462 291.92 37.5392 291.929 38.5632 291.938C39.5602 291.942 40.5572 291.947 41.5842 291.951C44.0562 291.963 46.5282 291.979 49.0002 292C48.9892 291.427 48.9782 290.854 48.9662 290.263C48.7012 276.282 48.5032 262.301 48.3782 248.318C48.3172 241.555 48.2322 234.795 48.0952 228.033C47.9622 221.504 47.8932 214.976 47.8612 208.445C47.8392 205.958 47.7962 203.471 47.7312 200.984C47.2182 180.522 47.2182 180.522 51.6462 175.155C54.4562 172.46 57.3822 170.492 61.0002 169C61.9902 169.33 62.9802 169.66 64.0002 170C64.0002 210.26 64.0002 250.52 64.0002 292C66.3102 292 68.6202 292 71.0002 292C70.9902 291.338 70.9802 290.677 70.9692 289.995C70.7262 273.869 70.5442 257.744 70.4302 241.617C70.3732 233.817 70.2962 226.019 70.1702 218.221C70.0602 211.421 69.9902 204.622 69.9652 197.821C69.9512 194.222 69.9172 190.625 69.8372 187.027C69.7482 183.002 69.7462 178.981 69.7512 174.955C69.7122 173.772 69.6722 172.589 69.6312 171.37C69.7022 166.205 69.9942 163.193 73.3922 159.165C76.1852 156.751 78.7162 154.689 82.0002 153C83.3202 153.33 84.6402 153.66 86.0002 154C86.0002 199.54 86.0002 245.08 86.0002 292C88.6402 292 91.2802 292 94.0002 292C93.9952 291.247 93.9912 290.494 93.9862 289.718C93.8762 271.399 93.7932 253.079 93.7412 234.76C93.7152 225.901 93.6802 217.041 93.6232 208.182C93.5732 200.461 93.5412 192.74 93.5302 185.018C93.5232 180.929 93.5082 176.841 93.4712 172.752C93.4372 168.904 93.4272 165.055 93.4342 161.207C93.4332 159.794 93.4232 158.382 93.4042 156.97C93.2492 144.958 93.2492 144.958 96.3482 141.746C97.2232 141.17 98.0982 140.594 99.0002 140C99.9902 139.34 100.98 138.68 102 138C77.9102 137.67 53.8202 137.34 29.0002 137C29.0002 127 29.0002 127 30.0002 126C32.8592 125.763 35.6992 125.578 38.5632 125.438C39.3692 125.394 40.1752 125.351 41.0062 125.307C43.0042 125.2 45.0022 125.1 47.0002 125C47.0982 124.091 47.1962 123.182 47.2972 122.246C49.1382 106.769 53.2582 93.0072 60.0002 79.0002C60.4732 78.0112 60.9462 77.0232 61.4342 76.0042C65.3742 68.3132 70.5632 61.6672 76.0002 55.0002C76.6722 54.1722 77.3432 53.3452 78.0352 52.4922C117.966 5.42823 194.26 -0.697767 242.375 37.0002Z" fill="#42C8F5"/>
<path d="M213 136C244 136 275 136 306 136C306 136.33 306 136.66 306 137C301.05 137 296.1 137 291 137C291 188.15 291 239.3 291 292C296.61 292 302.22 292 308 292C310 294 310 294 310.266 295.875C310.26 296.576 310.255 297.278 310.25 298C310.258 299.052 310.258 299.052 310.266 300.125C310 302 310 302 308 304C304.907 304.199 301.903 304.273 298.809 304.259C297.379 304.264 297.379 304.264 295.921 304.269C292.76 304.278 289.599 304.272 286.438 304.266C284.248 304.267 282.058 304.269 279.869 304.271C275.276 304.274 270.682 304.27 266.089 304.261C260.19 304.249 254.292 304.256 248.393 304.268C243.871 304.275 239.348 304.273 234.826 304.268C232.65 304.266 230.475 304.268 228.3 304.273C225.263 304.278 222.228 304.27 219.191 304.259C218.285 304.263 217.379 304.267 216.446 304.271C210.229 304.229 210.229 304.229 208 302C207.77 300.125 207.77 300.125 207.812 298C207.822 296.948 207.822 296.948 207.832 295.875C208 294 208 294 209 292C215.93 292 222.86 292 230 292C229.932 288.629 229.864 285.259 229.794 281.786C229.578 270.63 229.434 259.475 229.326 248.318C229.26 241.555 229.168 234.795 229.019 228.033C228.875 221.504 228.8 214.976 228.767 208.445C228.743 205.958 228.696 203.471 228.626 200.984C228.067 180.424 228.067 180.424 232.981 175.19C236.069 172.55 239.316 170.69 243 169C243.99 169.66 244.98 170.32 246 171C246.369 173.136 246.369 173.136 246.361 175.834C246.365 176.855 246.369 177.876 246.373 178.928C246.362 180.052 246.352 181.176 246.341 182.334C246.341 184.105 246.341 184.105 246.342 185.912C246.34 189.153 246.325 192.395 246.304 195.636C246.285 199.022 246.284 202.408 246.28 205.794C246.271 212.208 246.246 218.622 246.216 225.035C246.183 232.336 246.166 239.637 246.151 246.938C246.12 261.959 246.067 276.979 246 292C247.98 292 249.96 292 252 292C251.992 291.343 251.983 290.685 251.975 290.008C251.776 273.991 251.627 257.974 251.534 241.956C251.487 234.21 251.424 226.464 251.321 218.718C251.231 211.965 251.173 205.212 251.153 198.458C251.141 194.883 251.114 191.31 251.048 187.736C250.976 183.74 250.974 179.747 250.978 175.75C250.946 174.573 250.914 173.395 250.88 172.182C250.933 167.471 250.986 164.286 253.967 160.506C262.272 153 262.272 153 267 153C267 198.87 267 244.74 267 292C269.97 292 272.94 292 276 292C275.994 291.243 275.987 290.486 275.98 289.705C275.826 271.277 275.71 252.849 275.637 234.42C275.601 225.508 275.552 216.597 275.472 207.685C275.402 199.917 275.357 192.15 275.341 184.381C275.332 180.268 275.311 176.156 275.26 172.043C275.212 168.171 275.198 164.299 275.208 160.426C275.206 159.006 275.192 157.586 275.166 156.167C275.131 154.225 275.143 152.282 275.158 150.34C275.152 149.254 275.145 148.168 275.139 147.05C276 144 276 144 283 138C259.9 137.67 236.8 137.34 213 137C213 136.67 213 136.34 213 136Z" fill="#42C8F5"/>
<path d="M122 136C122 136.33 122 136.66 122 137C117.71 137 113.42 137 109 137C109 188.15 109 239.3 109 292C114.94 292 120.88 292 127 292C128 293 128 293 128.098 295.285C128.086 296.202 128.074 297.118 128.062 298.062C128.053 298.982 128.044 299.901 128.035 300.848C128.024 301.558 128.012 302.268 128 303C124.555 304.722 120.584 304.138 116.793 304.129C115.361 304.132 115.361 304.132 113.9 304.135C110.734 304.139 107.568 304.136 104.402 304.133C102.21 304.133 100.018 304.134 97.8272 304.136C93.2292 304.137 88.6312 304.135 84.0342 304.13C78.1262 304.125 72.2192 304.128 66.3112 304.134C61.7852 304.138 57.2582 304.136 52.7312 304.134C50.5522 304.133 48.3732 304.134 46.1942 304.136C43.1552 304.139 40.1172 304.135 37.0782 304.129C35.7132 304.132 35.7132 304.132 34.3212 304.136C28.1142 304.114 28.1142 304.114 27.0002 303C26.9022 301.336 26.8702 299.667 26.8752 298C26.8722 297.092 26.8702 296.185 26.8672 295.25C27.0002 293 27.0002 293 28.0002 292C29.5622 291.913 31.1272 291.893 32.6912 291.902C33.6362 291.906 34.5802 291.909 35.5532 291.912C36.5462 291.92 37.5392 291.929 38.5622 291.938C39.5602 291.942 40.5572 291.947 41.5842 291.951C44.0562 291.963 46.5282 291.979 49.0002 292C48.9892 291.427 48.9782 290.854 48.9662 290.263C48.7012 276.282 48.5032 262.301 48.3782 248.318C48.3172 241.555 48.2322 234.795 48.0952 228.033C47.9622 221.504 47.8932 214.976 47.8612 208.445C47.8392 205.958 47.7962 203.471 47.7312 200.984C47.2182 180.522 47.2182 180.522 51.6462 175.155C54.4562 172.46 57.3822 170.492 61.0002 169C61.9902 169.33 62.9802 169.66 64.0002 170C64.0002 210.26 64.0002 250.52 64.0002 292C66.3102 292 68.6202 292 71.0002 292C70.9902 291.338 70.9802 290.677 70.9692 289.995C70.7262 273.869 70.5442 257.744 70.4302 241.617C70.3732 233.817 70.2962 226.019 70.1702 218.221C70.0602 211.421 69.9902 204.622 69.9652 197.821C69.9512 194.222 69.9172 190.625 69.8372 187.027C69.7482 183.002 69.7462 178.981 69.7512 174.955C69.7122 173.772 69.6722 172.589 69.6312 171.37C69.7022 166.205 69.9942 163.193 73.3922 159.165C76.1852 156.751 78.7162 154.689 82.0002 153C83.3202 153.33 84.6402 153.66 86.0002 154C86.0002 199.54 86.0002 245.08 86.0002 292C88.6402 292 91.2802 292 94.0002 292C93.9952 291.247 93.9912 290.494 93.9862 289.718C93.8762 271.399 93.7932 253.079 93.7412 234.76C93.7152 225.901 93.6802 217.041 93.6232 208.182C93.5732 200.461 93.5412 192.74 93.5302 185.018C93.5232 180.929 93.5082 176.841 93.4712 172.752C93.4372 168.904 93.4272 165.055 93.4342 161.207C93.4332 159.794 93.4232 158.382 93.4042 156.97C93.2492 144.958 93.2492 144.958 96.3482 141.746C97.6612 140.882 97.6612 140.882 99.0002 140C99.9902 139.34 100.98 138.68 102 138C77.9102 137.67 53.8202 137.34 29.0002 137C29.0002 136.67 29.0002 136.34 29.0002 136C38.7632 135.845 48.5262 135.697 58.2902 135.557C62.8252 135.492 67.3602 135.425 71.8952 135.352C76.2852 135.282 80.6742 135.217 85.0642 135.157C86.7252 135.134 88.3872 135.108 90.0482 135.079C100.754 134.9 111.324 135.165 122 136Z" fill="#42C8F5"/>
<path d="M209 309C221.873 308.954 234.747 308.918 247.62 308.896C253.598 308.886 259.575 308.872 265.552 308.849C271.316 308.827 277.08 308.815 282.844 308.81C285.048 308.807 287.251 308.799 289.454 308.789C292.531 308.774 295.608 308.772 298.685 308.773C299.604 308.766 300.522 308.759 301.468 308.751C302.304 308.754 303.14 308.757 304.001 308.759C305.093 308.757 305.093 308.757 306.208 308.754C308 309 308 309 310 311C310.312 314.5 310.312 314.5 310 318C306.958 320.028 306.382 320.25 302.97 320.254C301.744 320.262 301.744 320.262 300.493 320.271C299.6 320.267 298.707 320.263 297.787 320.259C296.844 320.262 295.9 320.266 294.928 320.269C291.805 320.278 288.682 320.272 285.559 320.266C283.393 320.267 281.227 320.269 279.062 320.271C274.521 320.274 269.981 320.27 265.441 320.261C259.611 320.249 253.781 320.256 247.951 320.268C243.479 320.275 239.007 320.273 234.535 320.268C232.384 320.266 230.234 320.268 228.084 320.273C225.084 320.278 222.084 320.27 219.084 320.259C217.741 320.265 217.741 320.265 216.371 320.271C210.229 320.229 210.229 320.229 208 318C207.661 311.677 207.661 311.677 209 309Z" fill="#42C8F5"/>
<path d="M34.3962 308.864C35.3172 308.866 36.2372 308.868 37.1862 308.87C38.1502 308.868 39.1142 308.867 40.1072 308.865C43.3112 308.86 46.5152 308.863 49.7192 308.867C51.9352 308.866 54.1502 308.865 56.3662 308.864C61.0172 308.862 65.6672 308.864 70.3182 308.869C76.2942 308.875 82.2702 308.872 88.2462 308.866C92.8232 308.862 97.4012 308.863 101.978 308.866C104.182 308.866 106.386 308.866 108.59 308.863C111.665 308.861 114.74 308.865 117.814 308.87C118.735 308.868 119.656 308.866 120.604 308.864C126.886 308.885 126.886 308.885 128 310C128.072 311.519 128.084 313.041 128.063 314.562C128.053 315.388 128.044 316.215 128.035 317.066C128.024 317.704 128.012 318.342 128 319C124.555 320.722 120.584 320.137 116.793 320.129C115.361 320.132 115.361 320.132 113.9 320.134C110.734 320.139 107.568 320.136 104.402 320.132C102.21 320.133 100.019 320.134 97.8272 320.135C93.2292 320.137 88.6312 320.135 84.0342 320.13C78.1262 320.124 72.2192 320.127 66.3112 320.133C61.7852 320.137 57.2582 320.136 52.7312 320.133C50.5522 320.133 48.3732 320.134 46.1942 320.136C43.1552 320.138 40.1172 320.135 37.0782 320.129C35.7132 320.132 35.7132 320.132 34.3212 320.135C28.1142 320.114 28.1142 320.114 27.0002 319C26.9022 317.502 26.8702 316 26.8752 314.5C26.8722 313.685 26.8702 312.87 26.8672 312.031C27.1612 307.535 30.6932 308.877 34.3962 308.864Z" fill="#42C8F5"/>
<path d="M241.124 125.741C241.833 125.737 242.543 125.734 243.274 125.73C245.612 125.722 247.951 125.727 250.29 125.734C251.916 125.733 253.542 125.731 255.168 125.728C258.573 125.725 261.977 125.73 265.381 125.739C269.751 125.75 274.12 125.744 278.489 125.732C281.845 125.725 285.201 125.727 288.557 125.732C290.169 125.733 291.78 125.732 293.392 125.727C295.64 125.722 297.888 125.73 300.136 125.741C302.056 125.743 302.056 125.743 304.016 125.746C307 126 307 126 309 128C309.27 130.688 309.088 133.291 309 136C305.125 137.292 301.471 137.067 297.438 137C292.061 136.655 292.061 136.655 287 138C287 137.34 287 136.68 287 136C262.58 136 238.16 136 213 136C213 133.69 213 131.38 213 129C214.181 128.951 215.362 128.902 216.579 128.851C218.136 128.776 219.693 128.701 221.25 128.625C222.028 128.594 222.805 128.563 223.606 128.531C224.737 128.473 224.737 128.473 225.891 128.414C226.582 128.382 227.274 128.351 227.986 128.319C230.031 128.123 230.031 128.123 231.681 126.996C234.897 125.615 237.629 125.745 241.124 125.741Z" fill="#42C8F5"/>
<path d="M107 138C107.33 138 107.66 138 108 138C108 189.15 108 240.3 108 293C114.27 292.67 120.54 292.34 127 292C128.238 295.715 127.706 298.188 127 302C125.092 303.908 122.271 303.127 119.731 303.136C118.829 303.134 117.927 303.131 116.998 303.129C116.053 303.131 115.109 303.133 114.136 303.135C110.997 303.139 107.858 303.136 104.719 303.133C102.548 303.133 100.377 303.134 98.2063 303.136C93.6493 303.137 89.0933 303.135 84.5373 303.13C78.6823 303.125 72.8273 303.128 66.9723 303.134C62.4873 303.138 58.0023 303.136 53.5183 303.134C51.3583 303.133 49.1993 303.134 47.0393 303.136C44.0273 303.139 41.0143 303.135 38.0023 303.129C36.6493 303.132 36.6493 303.132 35.2693 303.136C29.1143 303.114 29.1143 303.114 28.0003 302C27.9593 300 27.9573 298 28.0003 296C28.3303 296 28.6603 296 29.0003 296C29.0003 297.65 29.0003 299.3 29.0003 301C61.0103 301 93.0203 301 126 301C126 299.02 126 297.04 126 295C124.712 295.012 123.424 295.023 122.098 295.035C120.419 295.045 118.741 295.054 117.062 295.062C116.212 295.071 115.362 295.079 114.486 295.088C113.677 295.091 112.869 295.094 112.035 295.098C111.286 295.103 110.537 295.108 109.766 295.114C108 295 108 295 107 294C106.903 291.988 106.878 289.972 106.88 287.957C106.878 285.986 106.878 285.986 106.876 283.976C106.879 282.506 106.883 281.036 106.886 279.566C106.887 278.029 106.887 276.492 106.886 274.955C106.886 270.769 106.892 266.583 106.899 262.398C106.905 258.028 106.905 253.659 106.907 249.289C106.91 241.009 106.918 232.729 106.928 224.448C106.939 215.024 106.945 205.6 106.95 196.175C106.96 176.784 106.978 157.392 107 138Z" fill="#42C8F5"/>
<path d="M168.875 49.7496C170.403 49.7376 170.403 49.7376 171.961 49.7266C172.941 49.7286 173.92 49.7316 174.93 49.7336C176.248 49.7376 176.248 49.7376 177.593 49.7406C180.151 50.0156 181.794 50.7106 184 51.9996C183.34 51.9946 182.68 51.9896 182 51.9836C178.979 51.9626 175.958 51.9496 172.937 51.9376C171.38 51.9246 171.38 51.9246 169.791 51.9116C162.089 51.8876 155.306 52.3816 148 54.9996C141.358 57.0856 134.705 59.1286 128 60.9996C130.731 57.5216 134.548 56.3976 138.563 54.9376C139.228 54.6816 139.894 54.4256 140.58 54.1616C149.954 50.6856 158.913 49.6726 168.875 49.7496ZM126 60.9996C128 61.9996 128 61.9996 128 61.9996L126 60.9996Z" fill="#42C8F5"/>
<path d="M145 30.0002C144.162 30.3322 144.162 30.3322 143.307 30.6712C140.725 31.6952 138.144 32.7232 135.562 33.7502C134.684 34.0982 133.806 34.4462 132.9 34.8052C127.801 36.8372 122.772 38.9622 117.793 41.2742C116 42.0002 116 42.0002 114 42.0002C114 41.3402 114 40.6802 114 40.0002C138.273 28.1452 138.273 28.1452 145 30.0002Z" fill="#42C8F5"/>
<path d="M194 15C195.32 15.99 196.64 16.98 198 18C195.36 17.67 192.72 17.34 190 17C191.32 16.34 192.64 15.68 194 15ZM202 17C202.99 17.99 203.98 18.98 205 20C202.69 19.67 200.38 19.34 198 19C199.32 18.34 200.64 17.68 202 17ZM205 20C208 21 208 21 208 21L205 20ZM208 21C212.219 21.479 214.797 22.166 218 25C214.442 24.39 211.317 23.422 208 22C208 21.67 208 21.34 208 21ZM218 25C220 26 220 26 220 26L218 25ZM220 26C221.32 26.33 222.64 26.66 224 27C223.01 27.495 223.01 27.495 222 28C221.34 27.34 220.68 26.68 220 26ZM224 28C226 29 226 29 226 29L224 28ZM226 29C228 30 228 30 228 30L226 29ZM228 30C230.475 30.99 230.475 30.99 233 32C232.01 32.495 232.01 32.495 231 33C230.01 32.01 229.02 31.02 228 30ZM233 33C233.99 33.33 234.98 33.66 236 34C235.01 34 234.02 34 233 34C233 33.67 233 33.34 233 33ZM236 35C236.66 35 237.32 35 238 35C237.67 35.66 237.34 36.32 237 37C236.67 36.34 236.34 35.68 236 35Z" fill="#42C8F5"/>
<path d="M145 30.0005C138.462 32.6405 131.859 34.3885 125 36.0005C126.403 33.1955 128.381 32.9685 131.225 31.9985C132.258 31.6595 132.258 31.6595 133.312 31.3125C134.329 30.9565 134.329 30.9565 135.365 30.5925C141.542 28.5335 141.542 28.5335 145 30.0005Z" fill="#42C8F5"/>
<path d="M158.949 25.8867C159.782 25.8917 160.614 25.8967 161.472 25.9027C162.371 25.9057 163.27 25.9087 164.197 25.9127C165.615 25.9247 165.615 25.9247 167.062 25.9377C168.011 25.9427 168.961 25.9467 169.939 25.9517C172.293 25.9637 174.646 25.9797 177 26.0007C177 26.3307 177 26.6607 177 27.0007C175.952 27.0607 174.904 27.1217 173.824 27.1837C172.445 27.2687 171.066 27.3527 169.687 27.4377C168.652 27.4967 168.652 27.4967 167.595 27.5567C164.528 27.7497 161.93 28.0237 159 29.0007C158.01 28.3407 157.02 27.6807 156 27.0007C157 26.0007 157 26.0007 158.949 25.8867Z" fill="#42C8F5"/>
<path d="M163.23 73.9027C164.434 73.9077 164.434 73.9077 165.662 73.9127C166.912 73.9247 166.912 73.9247 168.187 73.9377C169.032 73.9427 169.877 73.9467 170.748 73.9517C172.832 73.9637 174.916 73.9817 177 74.0007C177 74.3307 177 74.6607 177 75.0007C175.41 75.0917 175.41 75.0917 173.789 75.1837C172.401 75.2687 171.013 75.3527 169.625 75.4377C168.926 75.4767 168.227 75.5167 167.507 75.5567C163.626 75.7427 163.626 75.7427 160 77.0007C157.875 76.0627 157.875 76.0627 156 75.0007C158.765 74.0787 160.382 73.8827 163.23 73.9027Z" fill="#42C8F5"/>
<path d="M155 27.0002C151.255 30.7452 147.017 30.6892 142 31.0002C146.33 27.4432 149.461 26.8462 155 27.0002ZM139 31.0002C142 32.0002 142 32.0002 142 32.0002L139 31.0002Z" fill="#42C8F5"/>
<path d="M194 15C195.32 15.99 196.64 16.98 198 18C195.36 17.67 192.72 17.34 190 17C191.32 16.34 192.64 15.68 194 15ZM202 17C202.66 17.66 203.32 18.32 204 19C203.01 19.33 202.02 19.66 201 20C200.01 19.34 199.02 18.68 198 18C199.875 17.375 199.875 17.375 202 17Z" fill="#42C8F5"/>
<path d="M308 311C308.66 311 309.32 311 310 311C310 313.31 310 315.62 310 318C309.01 318 308.02 318 307 318C307.33 315.69 307.66 313.38 308 311Z" fill="#42C8F5"/>
<path d="M141 80C141.66 80.33 142.32 80.66 143 81C141.35 82.32 139.7 83.64 138 85C137.34 84.34 136.68 83.68 136 83C138.375 81.438 138.375 81.438 141 80Z" fill="#42C8F5"/>
<path d="M182 27C183.605 27.114 185.209 27.242 186.812 27.375C187.706 27.445 188.599 27.514 189.52 27.586C192 28 192 28 195 30C191.571 31.188 189.622 30.802 186.25 29.562C185.451 29.275 184.652 28.988 183.828 28.691C183.225 28.463 182.622 28.235 182 28C182 27.67 182 27.34 182 27Z" fill="#42C8F5"/>
<path d="M154 77.0001C150.535 78.4851 150.535 78.4851 147 80.0001C147 79.0101 147 78.0201 147 77.0001C150.133 75.9561 150.99 76.0661 154 77.0001Z" fill="#42C8F5"/>
<path d="M184 76C189.75 76.75 189.75 76.75 192 79C191.01 79.33 190.02 79.66 189 80C186.312 78.625 186.312 78.625 184 77C184 76.67 184 76.34 184 76Z" fill="#42C8F5"/>
<path d="M200 31C205.75 31.75 205.75 31.75 208 34C205.125 34.188 205.125 34.188 202 34C201.34 33.01 200.68 32.02 200 31Z" fill="#42C8F5"/>
<path d="M155 26.9997C153.68 27.9897 152.36 28.9797 151 29.9997C149.68 29.3397 148.36 28.6797 147 27.9997C149.928 27.0237 151.956 26.9177 155 26.9997Z" fill="#42C8F5"/>
<path d="M157 26C158.675 26.286 160.344 26.618 162 27C161.01 27.66 160.02 28.32 159 29C158.01 28.34 157.02 27.68 156 27C156.33 26.67 156.66 26.34 157 26Z" fill="#42C8F5"/>
<path d="M118 38C118 38.99 118 39.98 118 41C116.68 41.33 115.36 41.66 114 42C114 41.34 114 40.68 114 40C115.32 39.34 116.64 38.68 118 38Z" fill="#42C8F5"/>
<path d="M162 75C161.34 75.66 160.68 76.32 160 77C158.68 76.34 157.36 75.68 156 75C159 74 159 74 162 75Z" fill="#42C8F5"/>
<path d="M154 51C153.67 51.99 153.34 52.98 153 54C151.68 53.67 150.36 53.34 149 53C152 51 152 51 154 51Z" fill="#42C8F5"/>
<path d="M189 77C189.99 77.66 190.98 78.32 192 79C191.01 79.33 190.02 79.66 189 80C188.34 79.34 187.68 78.68 187 78C187.66 77.67 188.32 77.34 189 77Z" fill="#42C8F5"/>
<path d="M191 28C192.32 28.66 193.64 29.32 195 30C193.68 30.33 192.36 30.66 191 31C191 30.01 191 29.02 191 28Z" fill="#42C8F5"/>
<path d="M147 77C147.66 77 148.32 77 149 77C148.67 77.99 148.34 78.98 148 80C147.34 79.34 146.68 78.68 146 78C146.33 77.67 146.66 77.34 147 77Z" fill="#42C8F5"/>
<path d="M202 17C202.66 17.66 203.32 18.32 204 19C203.01 19.33 202.02 19.66 201 20C201.33 19.01 201.66 18.02 202 17Z" fill="#42C8F5"/>
</svg>
